<svg width="356" height="200" viewBox="0 0 356 200" fill="none" xmlns="http://www.w3.org/2000/svg">
<rect width="356" height="200" fill="#C9E5D9"/>
<g clip-path="url(#clip0_546_14993)">
<path d="M304.879 57H51.1212C33.3812 57 19 70.5914 19 87.3571V111.643C19 128.409 33.3812 142 51.1212 142H304.879C322.619 142 337 128.409 337 111.643V87.3571C337 70.5914 322.619 57 304.879 57Z" fill="#FFE4CB"/>
<path d="M56.6375 82.3897H64.4488V107.02C64.4488 109.297 63.9074 111.275 62.8244 112.954C61.7538 114.633 60.2632 115.926 58.353 116.835C56.4427 117.743 54.2223 118.197 51.6915 118.197C49.4406 118.197 47.3966 117.824 45.5592 117.076C43.7343 116.317 42.2864 115.167 41.2156 113.626C40.1449 112.074 39.6157 110.125 39.6279 107.779H47.4939C47.5181 108.711 47.7189 109.51 48.0962 110.177C48.4855 110.832 49.0147 111.338 49.6839 111.695C50.3654 112.04 51.1684 112.212 52.093 112.212C53.0664 112.212 53.8876 112.017 54.5569 111.626C55.2382 111.223 55.7553 110.637 56.1082 109.866C56.461 109.096 56.6375 108.147 56.6375 107.02V82.3897ZM105.33 100.052C105.33 103.904 104.558 107.181 103.013 109.884C101.479 112.586 99.3867 114.65 96.7343 116.076C94.0939 117.49 91.1251 118.197 87.8279 118.197C84.5062 118.197 81.5254 117.484 78.885 116.058C76.2448 114.633 74.1582 112.568 72.625 109.866C71.0921 107.164 70.3255 103.893 70.3255 100.052C70.3255 96.1999 71.0921 92.9227 72.625 90.2204C74.1582 87.5182 76.2448 85.4598 78.885 84.0455C81.5254 82.6196 84.5062 81.9067 87.8279 81.9067C91.1251 81.9067 94.0939 82.6196 96.7343 84.0455C99.3867 85.4598 101.479 87.5182 103.013 90.2204C104.558 92.9227 105.33 96.1999 105.33 100.052ZM97.3182 100.052C97.3182 97.5567 96.9228 95.4523 96.132 93.739C95.3532 92.0258 94.2521 90.7263 92.8287 89.841C91.405 88.9555 89.7381 88.5128 87.8279 88.5128C85.9176 88.5128 84.2507 88.9555 82.8272 89.841C81.4036 90.7263 80.2964 92.0258 79.5056 93.739C78.7268 95.4523 78.3375 97.5567 78.3375 100.052C78.3375 102.547 78.7268 104.651 79.5056 106.365C80.2964 108.078 81.4036 109.378 82.8272 110.263C84.2507 111.148 85.9176 111.591 87.8279 111.591C89.7381 111.591 91.405 111.148 92.8287 110.263C94.2521 109.378 95.3532 108.078 96.132 106.365C96.9228 104.651 97.3182 102.547 97.3182 100.052ZM134.271 82.3897H142.174V105.33C142.174 107.906 141.523 110.159 140.221 112.091C138.931 114.023 137.124 115.529 134.801 116.61C132.477 117.68 129.769 118.214 126.679 118.214C123.576 118.214 120.863 117.68 118.539 116.61C116.215 115.529 114.408 114.023 113.119 112.091C111.829 110.159 111.184 107.906 111.184 105.33V82.3897H119.087V104.692C119.087 106.037 119.397 107.233 120.017 108.279C120.65 109.326 121.538 110.148 122.682 110.746C123.826 111.344 125.158 111.643 126.679 111.643C128.212 111.643 129.544 111.344 130.676 110.746C131.82 110.148 132.702 109.326 133.322 108.279C133.955 107.233 134.271 106.037 134.271 104.692V82.3897ZM148.676 117.714V82.3897H163.422C166.245 82.3897 168.654 82.8669 170.65 83.8213C172.657 84.7642 174.184 86.1037 175.23 87.8401C176.289 89.5649 176.818 91.5946 176.818 93.9287C176.818 96.2746 176.283 98.2926 175.212 99.983C174.141 101.662 172.59 102.95 170.558 103.847C168.539 104.743 166.093 105.192 163.221 105.192H153.348V99.1896H161.944C163.453 99.1896 164.706 98.9941 165.704 98.6031C166.701 98.2121 167.443 97.6258 167.93 96.8438C168.429 96.0618 168.678 95.0902 168.678 93.9287C168.678 92.7559 168.429 91.767 167.93 90.9621C167.443 90.1571 166.695 89.5477 165.685 89.1338C164.688 88.7083 163.428 88.4955 161.907 88.4955H156.578V117.714H148.676ZM168.861 101.639L178.151 117.714H169.427L160.338 101.639H168.861ZM213.666 82.3897V117.714H206.84L190.579 95.4812H190.306V117.714H182.402V82.3897H189.339L205.472 104.605H205.801V82.3897H213.666ZM220.196 117.714V82.3897H245.382V88.5473H228.098V96.9644H244.086V103.122H228.098V111.557H245.455V117.714H220.196ZM249.474 82.3897H258.325L266.849 97.6027H267.213L275.737 82.3897H284.588L270.956 105.226V117.714H263.107V105.226L249.474 82.3897ZM309.181 92.549C309.035 91.1576 308.409 90.0767 307.302 89.3062C306.194 88.5358 304.692 88.1505 302.794 88.1505C301.504 88.1505 300.416 88.3231 299.527 88.668C298.639 89.0014 297.957 89.4673 297.483 90.0652C297.02 90.663 296.789 91.3415 296.789 92.1005C296.765 92.7329 296.905 93.2848 297.208 93.7563C297.525 94.2277 297.957 94.636 298.504 94.9809C299.052 95.3144 299.685 95.6076 300.403 95.8606C301.121 96.1021 301.887 96.309 302.703 96.4816L306.061 97.2405C307.691 97.5854 309.188 98.0454 310.55 98.6204C311.913 99.1952 313.094 99.9025 314.091 100.742C315.088 101.581 315.861 102.57 316.409 103.709C316.968 104.847 317.253 106.152 317.266 107.624C317.253 109.786 316.67 111.66 315.514 113.247C314.371 114.822 312.716 116.047 310.55 116.921C308.396 117.783 305.799 118.214 302.757 118.214C299.739 118.214 297.112 117.778 294.873 116.904C292.647 116.03 290.906 114.736 289.653 113.023C288.412 111.298 287.761 109.165 287.7 106.624H295.347C295.432 107.808 295.792 108.797 296.424 109.59C297.068 110.372 297.926 110.964 298.997 111.367C300.08 111.758 301.304 111.953 302.666 111.953C304.003 111.953 305.166 111.769 306.152 111.401C307.15 111.033 307.922 110.522 308.47 109.866C309.018 109.211 309.291 108.458 309.291 107.607C309.291 106.813 309.042 106.146 308.542 105.606C308.056 105.066 307.338 104.605 306.388 104.226C305.452 103.847 304.302 103.502 302.94 103.191L298.87 102.225C295.718 101.501 293.23 100.368 291.406 98.8273C289.579 97.2865 288.674 95.2108 288.686 92.6006C288.674 90.4619 289.276 88.5933 290.493 86.995C291.722 85.3965 293.407 84.149 295.548 83.2521C297.69 82.3551 300.123 81.9067 302.849 81.9067C305.622 81.9067 308.044 82.3551 310.113 83.2521C312.193 84.149 313.812 85.3965 314.966 86.995C316.123 88.5933 316.719 90.4446 316.756 92.549H309.181Z" fill="#539A88"/>
<path d="M38.2727 97.2232C38.2727 96.8041 38.6323 96.4643 39.0757 96.4643H318.53C318.974 96.4643 319.333 96.8041 319.333 97.2232V104.813C319.333 105.232 318.974 105.571 318.53 105.571H39.0757C38.6323 105.571 38.2727 105.232 38.2727 104.813V97.2232Z" fill="#C9E5D9"/>
<mask id="mask0_546_14993" style="mask-type:luminance" maskUnits="userSpaceOnUse" x="38" y="96" width="282" height="10">
<path d="M38.2727 97.2232C38.2727 96.8041 38.6323 96.4643 39.0757 96.4643H318.53C318.974 96.4643 319.333 96.8041 319.333 97.2232V104.813C319.333 105.232 318.974 105.571 318.53 105.571H39.0757C38.6323 105.571 38.2727 105.232 38.2727 104.813V97.2232Z" fill="white"/>
</mask>
<g mask="url(#mask0_546_14993)">
<path d="M39.0756 96.4643V96.8438H318.53V96.4643V96.0848H39.0756V96.4643ZM319.333 97.2232H318.932V104.813H319.333H319.735V97.2232H319.333ZM318.53 105.571V105.192H39.0756V105.571V105.951H318.53V105.571ZM38.2726 104.813H38.6741V97.2232H38.2726H37.8711V104.813H38.2726ZM39.0756 105.571V105.192C38.8538 105.192 38.6741 105.022 38.6741 104.813H38.2726H37.8711C37.8711 105.441 38.4104 105.951 39.0756 105.951V105.571ZM319.333 104.813H318.932C318.932 105.022 318.752 105.192 318.53 105.192V105.571V105.951C319.195 105.951 319.735 105.441 319.735 104.813H319.333ZM318.53 96.4643V96.8438C318.752 96.8438 318.932 97.0136 318.932 97.2232H319.333H319.735C319.735 96.5945 319.195 96.0848 318.53 96.0848V96.4643ZM39.0756 96.4643V96.0848C38.4104 96.0848 37.8711 96.5945 37.8711 97.2232H38.2726H38.6741C38.6741 97.0136 38.8538 96.8438 39.0756 96.8438V96.4643Z" fill="#539A88"/>
</g>
<path d="M141.738 105.845C141.459 105.845 141.127 105.794 140.742 105.693C140.357 105.612 140.164 105.389 140.164 105.025C140.164 104.883 140.196 104.721 140.26 104.539C140.324 104.357 140.389 104.195 140.453 104.054C140.667 103.527 140.892 102.991 141.127 102.445C141.363 101.898 141.609 101.342 141.866 100.775C141.588 101.079 141.32 101.362 141.063 101.625C140.828 101.868 140.656 102.05 140.549 102.171C140.485 102.252 140.432 102.293 140.389 102.293C140.346 102.293 140.324 102.242 140.324 102.141C140.324 101.979 140.378 101.827 140.485 101.686C140.785 101.321 141.127 100.937 141.513 100.532C141.898 100.127 142.273 99.7023 142.637 99.2571C143.537 97.4762 144.543 95.7559 145.657 94.0964C146.77 92.4166 148.023 90.9291 149.415 89.6339C149.843 89.2495 150.325 88.8548 150.86 88.45C151.395 88.0452 151.963 87.7012 152.563 87.4179C153.184 87.1345 153.794 86.9929 154.394 86.9929C154.715 86.9929 155.004 87.0738 155.261 87.2357C155.539 87.3977 155.689 87.6505 155.71 87.9946V88.875C155.71 88.9559 155.646 88.9964 155.518 88.9964C155.454 88.9964 155.421 88.9762 155.421 88.9357C155.421 88.612 155.272 88.3995 154.972 88.2982C154.672 88.1768 154.372 88.1161 154.072 88.1161C152.895 88.1161 151.835 88.4095 150.892 88.9964C149.95 89.563 149.115 90.312 148.387 91.2429C147.659 92.1536 147.006 93.1655 146.427 94.2786C145.849 95.3714 145.325 96.4541 144.854 97.5268C144.404 98.5791 143.975 99.5202 143.569 100.35C143.569 100.35 143.569 100.37 143.569 100.411C143.569 100.451 143.579 100.471 143.601 100.471C143.622 100.471 143.794 100.32 144.115 100.016C144.457 99.6923 144.875 99.3179 145.367 98.8929C145.881 98.4679 146.417 98.1036 146.974 97.8C147.53 97.4762 148.044 97.3143 148.515 97.3143C148.751 97.3143 148.901 97.3952 148.965 97.5571C149.029 97.6988 149.061 97.8607 149.061 98.0429V98.3161C148.954 99.0648 148.676 99.8745 148.226 100.745C147.798 101.615 147.241 102.445 146.556 103.234C145.892 104.003 145.143 104.63 144.307 105.116C143.494 105.602 142.637 105.845 141.738 105.845ZM142.252 105.329C142.594 105.329 142.958 105.207 143.344 104.964C143.751 104.701 144.061 104.468 144.275 104.266C144.532 104.043 144.843 103.699 145.207 103.234C145.571 102.748 145.924 102.222 146.267 101.655C146.609 101.089 146.899 100.542 147.134 100.016C147.37 99.4898 147.487 99.0648 147.487 98.7411C147.487 98.6398 147.466 98.5488 147.423 98.4679C147.38 98.387 147.305 98.3464 147.198 98.3464C147.006 98.3464 146.749 98.4577 146.427 98.6804C146.128 98.903 145.796 99.1762 145.432 99.5C145.089 99.8036 144.768 100.107 144.468 100.411C144.19 100.694 143.986 100.907 143.858 101.048C143.622 101.291 143.322 101.645 142.958 102.111C142.594 102.576 142.262 103.052 141.963 103.537C141.684 104.003 141.545 104.398 141.545 104.721C141.545 105.126 141.781 105.329 142.252 105.329ZM145.706 116.196C144.893 116.196 144.111 116.014 143.362 115.65C142.591 115.306 142.023 114.77 141.659 114.041C141.531 113.778 141.445 113.495 141.402 113.191C141.359 112.908 141.338 112.624 141.338 112.341V112.007C141.338 111.845 141.359 111.693 141.402 111.552C141.445 111.43 141.552 111.37 141.723 111.37C141.766 111.37 141.788 111.39 141.788 111.43C141.788 111.552 141.777 111.673 141.756 111.795C141.734 111.916 141.723 112.048 141.723 112.189C141.723 113.12 142.045 113.829 142.687 114.314C143.308 114.8 144.09 115.043 145.032 115.043C145.417 115.043 145.814 115.002 146.22 114.921C146.627 114.841 147.013 114.729 147.377 114.587C148.726 114.041 149.893 113.262 150.878 112.25C151.885 111.258 152.762 110.135 153.512 108.88C154.262 107.626 154.936 106.351 155.536 105.055C155.878 104.286 156.178 103.537 156.435 102.809C156.713 102.08 156.96 101.423 157.174 100.836C156.96 101.119 156.681 101.463 156.339 101.868C155.996 102.273 155.653 102.667 155.311 103.052C154.968 103.416 154.668 103.709 154.411 103.932C153.876 104.418 153.298 104.833 152.677 105.177C152.077 105.501 151.456 105.663 150.814 105.663C150.6 105.663 150.418 105.622 150.268 105.541C150.118 105.46 150.043 105.308 150.043 105.086C150.043 104.802 150.118 104.468 150.268 104.084C150.439 103.699 150.621 103.315 150.814 102.93C151.006 102.546 151.167 102.232 151.296 101.989C151.553 101.524 151.799 101.058 152.034 100.593C152.27 100.127 152.473 99.7327 152.645 99.4089C152.816 99.1054 152.902 98.903 152.902 98.8018C152.902 98.6398 152.773 98.6398 152.516 98.8018C152.281 98.9637 152.056 99.1255 151.842 99.2875C151.371 99.7125 150.878 100.218 150.364 100.805C149.85 101.372 149.454 101.827 149.176 102.171C149.111 102.252 149.058 102.293 149.015 102.293C148.972 102.293 148.951 102.242 148.951 102.141C148.951 101.979 149.004 101.827 149.111 101.686C149.411 101.281 149.765 100.836 150.171 100.35C150.578 99.8643 150.996 99.3988 151.424 98.9536C151.831 98.5488 152.248 98.1541 152.677 97.7696C153.105 97.3852 153.651 97.1929 154.315 97.1929C154.765 97.1929 154.99 97.3548 154.99 97.6786C154.99 97.962 154.861 98.2857 154.604 98.65C154.454 98.8727 154.219 99.247 153.897 99.7732C153.576 100.299 153.244 100.876 152.902 101.504C152.58 102.111 152.302 102.677 152.066 103.204C151.831 103.73 151.713 104.114 151.713 104.357C151.713 104.641 151.863 104.782 152.163 104.782C152.398 104.782 152.688 104.671 153.03 104.448C153.373 104.205 153.726 103.922 154.09 103.598C154.711 103.032 155.279 102.404 155.793 101.716C156.328 101.028 156.788 100.37 157.174 99.7429C157.238 99.6416 157.345 99.4595 157.495 99.1964C157.666 98.9334 157.838 98.6804 158.009 98.4375C158.202 98.1946 158.351 98.053 158.459 98.0125C158.566 97.972 158.78 97.8607 159.101 97.6786C159.422 97.4964 159.743 97.375 160.065 97.3143C160.365 97.2536 160.589 97.2232 160.739 97.2232C160.975 97.2232 161.093 97.2839 161.093 97.4054C161.093 97.5673 160.996 97.6482 160.803 97.6482C160.568 97.6482 160.354 97.7089 160.161 97.8304C159.968 97.9316 159.818 98.063 159.711 98.225C159.519 98.488 159.24 98.9637 158.876 99.6518C158.534 100.34 158.148 101.139 157.72 102.05C157.313 102.941 156.906 103.851 156.499 104.782C156.092 105.693 155.718 106.533 155.375 107.302C154.861 108.455 154.272 109.579 153.608 110.671C152.945 111.784 152.163 112.776 151.263 113.646C150.385 114.537 149.336 115.235 148.116 115.741C147.388 116.045 146.585 116.196 145.706 116.196ZM168.117 105.875C167.454 105.875 166.822 105.703 166.222 105.359C165.623 104.995 165.173 104.448 164.873 103.72C164.766 103.457 164.691 103.183 164.648 102.9C164.605 102.596 164.584 102.303 164.584 102.02C164.584 101.736 164.637 101.595 164.745 101.595C164.873 101.595 164.937 101.676 164.937 101.838C164.937 102.789 165.184 103.507 165.676 103.993C166.19 104.479 166.822 104.721 167.571 104.721C168.321 104.721 169.038 104.519 169.723 104.114C170.43 103.709 171.083 103.193 171.683 102.566C172.668 101.554 173.503 100.532 174.188 99.5C174.874 98.4477 175.494 97.375 176.051 96.2821C176.629 95.1691 177.208 94.0155 177.786 92.8214C178.15 92.0929 178.6 91.4554 179.135 90.9089C179.691 90.3625 180.356 89.988 181.127 89.7857L181.159 89.7554H179.392C178.642 89.7554 177.85 89.7857 177.015 89.8464C176.18 89.9071 175.42 90.0387 174.734 90.2411C174.07 90.4434 173.589 90.747 173.289 91.1518C173.096 91.4148 173 91.7184 173 92.0625C173 92.4066 173.096 92.7405 173.289 93.0643C173.482 93.388 173.728 93.6209 174.028 93.7625C174.07 93.803 174.092 93.8334 174.092 93.8536C174.092 93.8941 174.038 93.9446 173.931 94.0054C173.846 94.0459 173.749 94.0559 173.642 94.0357C173.471 93.9345 173.257 93.7727 173 93.55C172.743 93.3071 172.507 93.0541 172.293 92.7911C172.1 92.528 171.972 92.3054 171.908 92.1232C171.822 91.8804 171.779 91.6375 171.779 91.3946C171.779 90.9089 171.961 90.5143 172.325 90.2107C172.711 89.9071 173.203 89.6745 173.803 89.5125C174.402 89.3505 175.045 89.2393 175.73 89.1786C176.437 89.0977 177.111 89.0571 177.754 89.0571C178.417 89.037 178.985 89.0268 179.456 89.0268H182.926C182.968 89.0268 182.99 89.037 182.99 89.0571C182.99 89.1179 182.915 89.2089 182.765 89.3304C182.637 89.4316 182.55 89.4821 182.508 89.4821C181.972 89.5834 181.577 89.8566 181.32 90.3018C181.063 90.7268 180.944 91.4148 180.966 92.3661C180.966 92.3661 180.966 92.5887 180.966 93.0339C180.987 93.4791 181.008 94.0559 181.031 94.7643C181.052 95.4727 181.072 96.2316 181.095 97.0411C181.116 97.8505 181.137 98.6298 181.159 99.3786C181.18 100.127 181.201 100.755 181.223 101.261V101.443L192.369 90.3321C193.076 89.6238 193.772 89.0268 194.457 88.5411C195.164 88.0352 195.892 87.8125 196.642 87.8732C196.662 87.8732 196.674 87.8834 196.674 87.9036C196.695 87.9036 196.706 87.9036 196.706 87.9036C196.706 87.9643 196.662 88.0352 196.577 88.1161C196.491 88.197 196.394 88.2477 196.288 88.2679C195.731 88.2477 195.228 88.45 194.779 88.875C194.329 89.3 193.911 89.8059 193.526 90.3929C193.333 90.6964 193.044 91.1821 192.659 91.85C192.273 92.4977 191.833 93.2666 191.342 94.1571C190.869 95.0477 190.388 95.9887 189.896 96.9804C189.403 97.972 188.942 98.9434 188.515 99.8946C188.107 100.846 187.776 101.716 187.519 102.505C187.262 103.274 187.134 103.902 187.134 104.387C187.134 104.954 187.336 105.238 187.744 105.238C187.914 105.238 188.097 105.197 188.29 105.116C188.568 105.015 188.878 104.863 189.222 104.661C189.564 104.458 189.874 104.226 190.153 103.963C190.709 103.457 191.202 102.941 191.631 102.414C192.058 101.868 192.315 101.554 192.402 101.473C192.466 101.392 192.519 101.352 192.562 101.352C192.647 101.352 192.691 101.412 192.691 101.534C192.691 101.655 192.647 101.767 192.562 101.868C192.39 102.07 192.101 102.424 191.695 102.93C191.287 103.416 190.805 103.912 190.249 104.418C189.713 104.924 189.135 105.308 188.515 105.571C188.322 105.652 188.118 105.713 187.905 105.754C187.689 105.814 187.476 105.845 187.262 105.845C186.79 105.845 186.363 105.713 185.977 105.45C185.613 105.167 185.431 104.701 185.431 104.054C185.431 103.426 185.581 102.718 185.881 101.929C186.202 101.119 186.556 100.34 186.941 99.5911C187.347 98.822 187.68 98.1745 187.937 97.6482C188.215 97.1018 188.568 96.4036 188.997 95.5536C189.424 94.7036 189.917 93.8434 190.474 92.9732L181.223 102.202C181.201 102.364 181.127 102.526 180.999 102.688C180.87 102.829 180.666 102.951 180.388 103.052C180.237 103.112 180.035 103.274 179.778 103.537C179.52 103.801 179.349 103.983 179.263 104.084C179.263 104.104 179.231 104.114 179.167 104.114C179.103 104.114 179.039 104.094 178.974 104.054C178.91 104.013 178.889 103.983 178.91 103.963C179.467 103.295 179.755 102.374 179.778 101.2L179.81 100.471C179.852 99.6214 179.884 98.7309 179.906 97.8C179.927 96.8488 179.939 95.9684 179.939 95.1589C179.959 94.3291 179.971 93.6613 179.971 93.1554C179.971 92.6291 179.971 92.3661 179.971 92.3661C179.971 91.8804 180.045 91.4554 180.196 91.0911C180.345 90.7268 180.526 90.413 180.742 90.15C180.377 90.413 180.024 90.7268 179.682 91.0911C179.338 91.4554 179.049 91.8602 178.814 92.3054C178.492 92.9327 178.128 93.7423 177.722 94.7339C177.315 95.7255 176.844 96.778 176.308 97.8911C175.794 99.0041 175.216 100.097 174.574 101.17C173.953 102.222 173.257 103.133 172.486 103.902C171.95 104.448 171.265 104.914 170.43 105.298C169.616 105.683 168.845 105.875 168.117 105.875ZM196.515 105.663C196.301 105.663 196.12 105.622 195.969 105.541C195.819 105.46 195.744 105.308 195.744 105.086C195.744 104.802 195.819 104.479 195.969 104.114C196.12 103.75 196.29 103.396 196.483 103.052C196.675 102.687 196.847 102.394 196.997 102.171C196.248 102.92 195.466 103.629 194.652 104.296C194.245 104.62 193.796 104.924 193.303 105.207C192.811 105.491 192.286 105.632 191.729 105.632C191.515 105.632 191.366 105.571 191.279 105.45C191.194 105.308 191.15 105.146 191.15 104.964C191.15 104.863 191.162 104.792 191.183 104.752C191.29 103.962 191.558 103.143 191.986 102.293C192.414 101.443 192.94 100.643 193.56 99.8946C194.181 99.1459 194.812 98.5387 195.455 98.0732C196.184 97.547 196.987 97.2839 197.864 97.2839H201.558C201.665 97.2839 201.718 97.3245 201.718 97.4054C201.718 97.5673 201.622 97.6482 201.429 97.6482C201.216 97.6482 201.002 97.7798 200.787 98.0429C200.573 98.2857 200.413 98.488 200.305 98.65C200.156 98.8727 199.92 99.247 199.598 99.7732C199.277 100.299 198.946 100.876 198.603 101.504C198.281 102.111 198.004 102.677 197.767 103.204C197.533 103.73 197.414 104.114 197.414 104.357C197.414 104.641 197.565 104.782 197.864 104.782C198.185 104.782 198.55 104.641 198.956 104.357C199.364 104.074 199.77 103.73 200.177 103.325C200.605 102.9 200.991 102.485 201.333 102.08C201.697 101.655 201.987 101.321 202.2 101.079C202.329 101.2 202.319 101.372 202.168 101.595C202.04 101.797 201.922 101.959 201.815 102.08C201.387 102.607 200.894 103.153 200.337 103.72C199.781 104.266 199.171 104.732 198.506 105.116C197.864 105.48 197.2 105.663 196.515 105.663ZM193.046 104.6C193.303 104.6 193.656 104.428 194.106 104.084C194.578 103.72 195.08 103.274 195.615 102.748C196.152 102.202 196.654 101.635 197.125 101.048C197.597 100.441 197.983 99.8946 198.281 99.4089C198.603 98.903 198.763 98.5184 198.763 98.2554C198.763 98.0327 198.689 97.8809 198.538 97.8C198.41 97.7191 198.24 97.6786 198.024 97.6786C197.682 97.6786 197.308 97.8 196.9 98.0429C196.515 98.2655 196.205 98.488 195.969 98.7107C195.712 98.9334 195.402 99.2875 195.037 99.7732C194.695 100.239 194.353 100.755 194.009 101.321C193.667 101.888 193.378 102.434 193.142 102.961C192.907 103.487 192.789 103.912 192.789 104.236C192.789 104.479 192.875 104.6 193.046 104.6ZM208.269 93.975C207.969 93.975 207.756 93.8839 207.627 93.7018C207.542 93.6005 207.499 93.4691 207.499 93.3071C207.499 92.9834 207.659 92.7202 207.98 92.5179C208.216 92.3964 208.43 92.3357 208.623 92.3357C208.944 92.3357 209.169 92.4268 209.297 92.6089C209.382 92.7102 209.426 92.8416 209.426 93.0036C209.426 93.3273 209.254 93.5905 208.912 93.7929C208.719 93.9143 208.506 93.975 208.269 93.975ZM202.68 105.663C202.467 105.663 202.284 105.622 202.134 105.541C202.006 105.46 201.942 105.308 201.942 105.086C201.942 104.802 202.017 104.468 202.166 104.084C202.338 103.699 202.52 103.315 202.712 102.93C202.926 102.546 203.087 102.232 203.194 101.989C203.344 101.706 203.527 101.342 203.74 100.896C203.976 100.431 204.19 99.9959 204.383 99.5911C204.596 99.1661 204.747 98.8727 204.832 98.7107C204.532 99.0143 204.169 99.3988 203.74 99.8643C203.334 100.309 202.949 100.745 202.584 101.17C202.219 101.595 201.942 101.929 201.749 102.171C201.685 102.252 201.632 102.293 201.588 102.293C201.545 102.293 201.524 102.242 201.524 102.141C201.524 101.979 201.577 101.827 201.685 101.686C202.091 101.2 202.541 100.654 203.034 100.046C203.548 99.4393 204.009 98.8827 204.415 98.3768C204.821 97.8505 205.078 97.5066 205.186 97.3446C205.422 97.3041 205.764 97.2434 206.214 97.1625C206.684 97.0816 207.005 96.9702 207.177 96.8286C207.242 96.7679 207.306 96.7375 207.37 96.7375C207.413 96.7375 207.434 96.778 207.434 96.8589C207.455 96.9196 207.434 96.9905 207.37 97.0714C207.242 97.213 207.017 97.5571 206.696 98.1036C206.374 98.65 206.032 99.2571 205.668 99.925C205.326 100.573 205.004 101.159 204.704 101.686C204.404 102.232 204.147 102.758 203.933 103.264C203.719 103.77 203.612 104.134 203.612 104.357C203.612 104.641 203.761 104.782 204.062 104.782C204.339 104.782 204.693 104.62 205.122 104.296C205.571 103.973 206.021 103.588 206.471 103.143C206.92 102.677 207.317 102.252 207.659 101.868C207.767 101.746 207.895 101.605 208.045 101.443C208.216 101.261 208.322 101.149 208.366 101.109C208.409 101.149 208.43 101.22 208.43 101.321C208.409 101.463 208.355 101.605 208.269 101.746C208.184 101.868 208.098 101.979 208.012 102.08C207.563 102.607 207.07 103.153 206.535 103.72C206 104.266 205.411 104.732 204.768 105.116C204.126 105.48 203.43 105.663 202.68 105.663ZM209.053 105.663C208.838 105.663 208.657 105.622 208.507 105.541C208.356 105.46 208.282 105.308 208.282 105.086C208.282 104.802 208.356 104.468 208.507 104.084C208.677 103.699 208.86 103.315 209.053 102.93C209.246 102.546 209.407 102.232 209.535 101.989C209.641 101.807 209.781 101.524 209.953 101.139C210.145 100.734 210.338 100.32 210.531 99.8946C210.744 99.4495 210.916 99.075 211.045 98.7714C211.194 98.4679 211.27 98.3161 211.27 98.3161C211.077 98.5184 210.82 98.8018 210.499 99.1661C210.198 99.5304 209.866 99.9148 209.503 100.32C209.159 100.704 208.838 101.068 208.539 101.412C208.26 101.757 208.057 102.009 207.929 102.171C207.865 102.252 207.81 102.293 207.768 102.293C207.725 102.293 207.704 102.242 207.704 102.141C207.704 101.979 207.757 101.827 207.865 101.686C208.122 101.382 208.432 101.018 208.796 100.593C209.159 100.148 209.524 99.7023 209.888 99.2571C210.274 98.812 210.605 98.4173 210.884 98.0732C210.712 98.0732 210.487 98.0834 210.21 98.1036C209.953 98.1238 209.717 98.1541 209.503 98.1946C209.288 98.2148 209.17 98.225 209.15 98.225C209.042 98.225 209.053 98.1441 209.182 97.9821C209.31 97.8202 209.48 97.6584 209.696 97.4964C209.909 97.3345 210.07 97.2536 210.177 97.2536C210.198 97.2536 210.37 97.2637 210.691 97.2839C211.013 97.2839 211.247 97.2839 211.398 97.2839C211.825 96.7375 212.243 96.1102 212.651 95.4018C213.078 94.6934 213.496 93.9143 213.904 93.0643C214.074 93.0441 214.363 92.9327 214.771 92.7304C215.198 92.5077 215.53 92.2852 215.767 92.0625C215.873 91.9613 215.959 91.9107 216.024 91.9107C216.152 91.9107 216.152 91.9916 216.024 92.1536C215.873 92.3155 215.616 92.6595 215.253 93.1857C214.888 93.6916 214.482 94.3089 214.032 95.0375C213.582 95.7459 213.153 96.4946 212.747 97.2839H215.349C215.583 97.2839 215.702 97.3143 215.702 97.375C215.702 97.4559 215.542 97.537 215.22 97.6179C214.856 97.7191 214.47 97.7798 214.064 97.8C213.679 97.8202 213.314 97.8607 212.972 97.9214C212.651 97.9821 212.415 98.1137 212.265 98.3161C212.137 98.4577 211.954 98.7613 211.719 99.2268C211.483 99.6923 211.226 100.229 210.948 100.836C210.691 101.423 210.467 102.02 210.274 102.627C210.081 103.214 209.962 103.709 209.92 104.114V104.236C209.92 104.398 209.973 104.529 210.081 104.63C210.187 104.732 210.295 104.782 210.402 104.782C210.68 104.782 211.033 104.62 211.462 104.296C211.912 103.973 212.371 103.588 212.844 103.143C213.314 102.677 213.72 102.252 214.064 101.868C214.213 101.706 214.342 101.554 214.45 101.412C214.578 101.271 214.652 101.18 214.674 101.139C214.716 101.22 214.739 101.281 214.739 101.321C214.739 101.443 214.695 101.574 214.61 101.716C214.546 101.858 214.47 101.979 214.385 102.08C213.977 102.586 213.486 103.123 212.908 103.689C212.33 104.236 211.708 104.701 211.045 105.086C210.402 105.47 209.737 105.663 209.053 105.663ZM215.967 105.814C215.089 105.814 214.478 105.652 214.136 105.329C213.793 105.005 213.622 104.61 213.622 104.145C213.622 103.558 213.783 102.93 214.104 102.262C214.446 101.595 214.768 101.028 215.068 100.563C215.41 100.077 215.871 99.5709 216.449 99.0446C217.027 98.5184 217.658 98.0732 218.344 97.7089C219.028 97.3446 219.693 97.1625 220.336 97.1625C220.891 97.1625 221.277 97.2941 221.492 97.5571C221.706 97.8 221.813 98.0934 221.813 98.4375C221.813 99.0648 221.609 99.5809 221.203 99.9857C220.818 100.391 220.336 100.724 219.758 100.987C219.179 101.23 218.622 101.433 218.087 101.595C217.766 101.676 217.39 101.757 216.963 101.838C216.534 101.918 216.128 101.959 215.742 101.959C215.591 102.323 215.474 102.677 215.389 103.021C215.302 103.366 215.261 103.679 215.261 103.963C215.261 104.307 215.346 104.59 215.518 104.812C215.71 105.035 216.02 105.146 216.449 105.146C216.619 105.146 216.823 105.126 217.059 105.086C217.294 105.045 217.551 104.984 217.83 104.904C218.473 104.701 219.104 104.377 219.725 103.932C220.345 103.487 220.914 103.011 221.428 102.505C221.963 101.979 222.369 101.544 222.649 101.2C222.713 101.261 222.745 101.332 222.745 101.412C222.745 101.514 222.669 101.676 222.52 101.898C222.091 102.465 221.534 103.052 220.85 103.659C220.164 104.266 219.404 104.782 218.569 105.207C217.734 105.612 216.867 105.814 215.967 105.814ZM215.999 101.352C216.277 101.372 216.587 101.372 216.931 101.352C217.294 101.311 217.647 101.241 217.991 101.139C218.868 100.896 219.501 100.512 219.886 99.9857C220.292 99.4393 220.496 98.9536 220.496 98.5286C220.496 98.2857 220.442 98.0834 220.336 97.9214C220.228 97.7595 220.056 97.6786 219.822 97.6786C219.2 97.6786 218.643 97.9012 218.152 98.3464C217.658 98.7714 217.23 99.2673 216.867 99.8339C216.502 100.401 216.213 100.907 215.999 101.352Z" fill="#FFE4CB"/>
<path d="M141.095 105.845C140.817 105.845 140.485 105.794 140.1 105.693C139.714 105.612 139.521 105.389 139.521 105.025C139.521 104.883 139.554 104.721 139.618 104.539C139.682 104.357 139.746 104.195 139.811 104.054C140.025 103.527 140.25 102.991 140.485 102.445C140.721 101.898 140.967 101.342 141.224 100.775C140.946 101.079 140.678 101.362 140.421 101.625C140.185 101.868 140.014 102.05 139.907 102.171C139.843 102.252 139.789 102.293 139.746 102.293C139.703 102.293 139.682 102.242 139.682 102.141C139.682 101.979 139.736 101.827 139.843 101.686C140.143 101.321 140.485 100.937 140.871 100.532C141.256 100.127 141.631 99.7023 141.995 99.2571C142.894 97.4762 143.901 95.7559 145.014 94.0964C146.128 92.4166 147.38 90.9291 148.772 89.6339C149.201 89.2495 149.683 88.8548 150.218 88.45C150.753 88.0452 151.321 87.7012 151.92 87.4179C152.541 87.1345 153.152 86.9929 153.751 86.9929C154.072 86.9929 154.361 87.0738 154.618 87.2357C154.897 87.3977 155.047 87.6505 155.068 87.9946V88.875C155.068 88.9559 155.004 88.9964 154.875 88.9964C154.811 88.9964 154.779 88.9762 154.779 88.9357C154.779 88.612 154.629 88.3995 154.329 88.2982C154.03 88.1768 153.73 88.1161 153.43 88.1161C152.252 88.1161 151.192 88.4095 150.25 88.9964C149.308 89.563 148.473 90.312 147.745 91.2429C147.016 92.1536 146.363 93.1655 145.785 94.2786C145.207 95.3714 144.682 96.4541 144.211 97.5268C143.761 98.5791 143.333 99.5202 142.926 100.35C142.926 100.35 142.926 100.37 142.926 100.411C142.926 100.451 142.937 100.471 142.958 100.471C142.98 100.471 143.151 100.32 143.472 100.016C143.815 99.6923 144.233 99.3179 144.725 98.8929C145.239 98.4679 145.774 98.1036 146.331 97.8C146.888 97.4762 147.402 97.3143 147.873 97.3143C148.109 97.3143 148.258 97.3952 148.323 97.5571C148.387 97.6988 148.419 97.8607 148.419 98.0429V98.3161C148.312 99.0648 148.034 99.8745 147.584 100.745C147.156 101.615 146.599 102.445 145.914 103.234C145.25 104.003 144.5 104.63 143.665 105.116C142.851 105.602 141.995 105.845 141.095 105.845ZM141.609 105.329C141.952 105.329 142.316 105.207 142.701 104.964C143.108 104.701 143.419 104.468 143.633 104.266C143.89 104.043 144.2 103.699 144.565 103.234C144.929 102.748 145.282 102.222 145.625 101.655C145.967 101.089 146.256 100.542 146.492 100.016C146.727 99.4898 146.845 99.0648 146.845 98.7411C146.845 98.6398 146.824 98.5488 146.781 98.4679C146.738 98.387 146.663 98.3464 146.556 98.3464C146.363 98.3464 146.106 98.4577 145.785 98.6804C145.485 98.903 145.153 99.1762 144.789 99.5C144.447 99.8036 144.126 100.107 143.826 100.411C143.547 100.694 143.344 100.907 143.215 101.048C142.98 101.291 142.68 101.645 142.316 102.111C141.952 102.576 141.62 103.052 141.32 103.537C141.042 104.003 140.903 104.398 140.903 104.721C140.903 105.126 141.138 105.329 141.609 105.329ZM145.064 116.196C144.25 116.196 143.469 116.014 142.719 115.65C141.948 115.306 141.381 114.77 141.017 114.041C140.888 113.778 140.803 113.495 140.76 113.191C140.717 112.908 140.696 112.624 140.696 112.341V112.007C140.696 111.845 140.717 111.693 140.76 111.552C140.803 111.43 140.91 111.37 141.081 111.37C141.124 111.37 141.145 111.39 141.145 111.43C141.145 111.552 141.135 111.673 141.113 111.795C141.092 111.916 141.081 112.048 141.081 112.189C141.081 113.12 141.402 113.829 142.045 114.314C142.666 114.8 143.447 115.043 144.39 115.043C144.775 115.043 145.171 115.002 145.578 114.921C145.985 114.841 146.37 114.729 146.734 114.587C148.084 114.041 149.251 113.262 150.236 112.25C151.242 111.258 152.12 110.135 152.87 108.88C153.619 107.626 154.294 106.351 154.893 105.055C155.236 104.286 155.536 103.537 155.793 102.809C156.071 102.08 156.317 101.423 156.531 100.836C156.317 101.119 156.039 101.463 155.696 101.868C155.354 102.273 155.011 102.667 154.668 103.052C154.326 103.416 154.026 103.709 153.769 103.932C153.234 104.418 152.655 104.833 152.034 105.177C151.435 105.501 150.814 105.663 150.171 105.663C149.957 105.663 149.775 105.622 149.625 105.541C149.475 105.46 149.401 105.308 149.401 105.086C149.401 104.802 149.475 104.468 149.625 104.084C149.797 103.699 149.979 103.315 150.171 102.93C150.364 102.546 150.525 102.232 150.653 101.989C150.91 101.524 151.156 101.058 151.392 100.593C151.627 100.127 151.831 99.7327 152.002 99.4089C152.174 99.1054 152.259 98.903 152.259 98.8018C152.259 98.6398 152.131 98.6398 151.874 98.8018C151.638 98.9637 151.413 99.1255 151.199 99.2875C150.728 99.7125 150.236 100.218 149.722 100.805C149.208 101.372 148.812 101.827 148.533 102.171C148.469 102.252 148.415 102.293 148.373 102.293C148.33 102.293 148.308 102.242 148.308 102.141C148.308 101.979 148.362 101.827 148.469 101.686C148.769 101.281 149.122 100.836 149.529 100.35C149.936 99.8643 150.353 99.3988 150.782 98.9536C151.189 98.5488 151.606 98.1541 152.034 97.7696C152.463 97.3852 153.009 97.1929 153.673 97.1929C154.122 97.1929 154.347 97.3548 154.347 97.6786C154.347 97.962 154.219 98.2857 153.962 98.65C153.812 98.8727 153.576 99.247 153.255 99.7732C152.934 100.299 152.602 100.876 152.259 101.504C151.938 102.111 151.66 102.677 151.424 103.204C151.189 103.73 151.071 104.114 151.071 104.357C151.071 104.641 151.221 104.782 151.521 104.782C151.756 104.782 152.045 104.671 152.388 104.448C152.73 104.205 153.084 103.922 153.448 103.598C154.069 103.032 154.636 102.404 155.15 101.716C155.686 101.028 156.146 100.37 156.531 99.7429C156.596 99.6416 156.703 99.4595 156.853 99.1964C157.024 98.9334 157.195 98.6804 157.367 98.4375C157.559 98.1946 157.709 98.053 157.816 98.0125C157.923 97.972 158.137 97.8607 158.459 97.6786C158.78 97.4964 159.101 97.375 159.422 97.3143C159.722 97.2536 159.947 97.2232 160.097 97.2232C160.332 97.2232 160.45 97.2839 160.45 97.4054C160.45 97.5673 160.354 97.6482 160.161 97.6482C159.926 97.6482 159.711 97.7089 159.519 97.8304C159.326 97.9316 159.176 98.063 159.069 98.225C158.876 98.488 158.598 98.9637 158.234 99.6518C157.891 100.34 157.506 101.139 157.077 102.05C156.671 102.941 156.264 103.851 155.857 104.782C155.45 105.693 155.075 106.533 154.733 107.302C154.219 108.455 153.63 109.579 152.966 110.671C152.302 111.784 151.521 112.776 150.621 113.646C149.743 114.537 148.694 115.235 147.473 115.741C146.745 116.045 145.942 116.196 145.064 116.196ZM167.475 105.875C166.811 105.875 166.179 105.703 165.58 105.359C164.98 104.995 164.531 104.448 164.231 103.72C164.124 103.457 164.049 103.183 164.006 102.9C163.963 102.596 163.942 102.303 163.942 102.02C163.942 101.736 163.995 101.595 164.102 101.595C164.231 101.595 164.295 101.676 164.295 101.838C164.295 102.789 164.541 103.507 165.034 103.993C165.548 104.479 166.179 104.721 166.929 104.721C167.678 104.721 168.396 104.519 169.081 104.114C169.788 103.709 170.441 103.193 171.04 102.566C172.025 101.554 172.861 100.532 173.546 99.5C174.231 98.4477 174.852 97.375 175.409 96.2821C175.987 95.1691 176.565 94.0155 177.143 92.8214C177.508 92.0929 177.957 91.4554 178.493 90.9089C179.049 90.3625 179.714 89.988 180.485 89.7857L180.517 89.7554H178.75C178 89.7554 177.208 89.7857 176.373 89.8464C175.537 89.9071 174.777 90.0387 174.092 90.2411C173.428 90.4434 172.946 90.747 172.646 91.1518C172.454 91.4148 172.357 91.7184 172.357 92.0625C172.357 92.4066 172.454 92.7405 172.646 93.0643C172.839 93.388 173.085 93.6209 173.385 93.7625C173.428 93.803 173.45 93.8334 173.45 93.8536C173.45 93.8941 173.396 93.9446 173.289 94.0054C173.203 94.0459 173.107 94.0559 173 94.0357C172.828 93.9345 172.614 93.7727 172.357 93.55C172.1 93.3071 171.865 93.0541 171.651 92.7911C171.458 92.528 171.33 92.3054 171.265 92.1232C171.18 91.8804 171.137 91.6375 171.137 91.3946C171.137 90.9089 171.319 90.5143 171.683 90.2107C172.068 89.9071 172.561 89.6745 173.16 89.5125C173.76 89.3505 174.402 89.2393 175.088 89.1786C175.794 89.0977 176.469 89.0571 177.111 89.0571C177.775 89.037 178.343 89.0268 178.814 89.0268H182.283C182.325 89.0268 182.348 89.037 182.348 89.0571C182.348 89.1179 182.272 89.2089 182.123 89.3304C181.994 89.4316 181.908 89.4821 181.866 89.4821C181.329 89.5834 180.934 89.8566 180.677 90.3018C180.42 90.7268 180.302 91.4148 180.324 92.3661C180.324 92.3661 180.324 92.5887 180.324 93.0339C180.345 93.4791 180.366 94.0559 180.388 94.7643C180.409 95.4727 180.43 96.2316 180.453 97.0411C180.473 97.8505 180.494 98.6298 180.517 99.3786C180.538 100.127 180.559 100.755 180.581 101.261V101.443L191.727 90.3321C192.434 89.6238 193.129 89.0268 193.815 88.5411C194.522 88.0352 195.249 87.8125 195.999 87.8732C196.02 87.8732 196.031 87.8834 196.031 87.9036C196.052 87.9036 196.063 87.9036 196.063 87.9036C196.063 87.9643 196.02 88.0352 195.935 88.1161C195.848 88.197 195.752 88.2477 195.646 88.2679C195.089 88.2477 194.586 88.45 194.136 88.875C193.687 89.3 193.269 89.8059 192.883 90.3929C192.691 90.6964 192.402 91.1821 192.016 91.85C191.631 92.4977 191.191 93.2666 190.699 94.1571C190.227 95.0477 189.745 95.9887 189.254 96.9804C188.761 97.972 188.3 98.9434 187.873 99.8946C187.465 100.846 187.134 101.716 186.877 102.505C186.62 103.274 186.491 103.902 186.491 104.387C186.491 104.954 186.694 105.238 187.102 105.238C187.272 105.238 187.455 105.197 187.648 105.116C187.926 105.015 188.236 104.863 188.579 104.661C188.921 104.458 189.231 104.226 189.511 103.963C190.066 103.457 190.56 102.941 190.988 102.414C191.416 101.868 191.673 101.554 191.759 101.473C191.823 101.392 191.876 101.352 191.92 101.352C192.005 101.352 192.048 101.412 192.048 101.534C192.048 101.655 192.005 101.767 191.92 101.868C191.748 102.07 191.459 102.424 191.053 102.93C190.645 103.416 190.163 103.912 189.607 104.418C189.071 104.924 188.493 105.308 187.873 105.571C187.68 105.652 187.476 105.713 187.262 105.754C187.047 105.814 186.833 105.845 186.62 105.845C186.148 105.845 185.72 105.713 185.335 105.45C184.97 105.167 184.789 104.701 184.789 104.054C184.789 103.426 184.938 102.718 185.239 101.929C185.56 101.119 185.913 100.34 186.299 99.5911C186.705 98.822 187.037 98.1745 187.294 97.6482C187.572 97.1018 187.926 96.4036 188.354 95.5536C188.782 94.7036 189.275 93.8434 189.832 92.9732L180.581 102.202C180.559 102.364 180.485 102.526 180.356 102.688C180.228 102.829 180.024 102.951 179.746 103.052C179.595 103.112 179.392 103.274 179.135 103.537C178.878 103.801 178.707 103.983 178.621 104.084C178.621 104.104 178.589 104.114 178.525 104.114C178.46 104.114 178.396 104.094 178.332 104.054C178.268 104.013 178.246 103.983 178.268 103.963C178.825 103.295 179.114 102.374 179.135 101.2L179.167 100.471C179.21 99.6214 179.242 98.7309 179.263 97.8C179.285 96.8488 179.296 95.9684 179.296 95.1589C179.317 94.3291 179.328 93.6613 179.328 93.1554C179.328 92.6291 179.328 92.3661 179.328 92.3661C179.328 91.8804 179.403 91.4554 179.553 91.0911C179.703 90.7268 179.884 90.413 180.099 90.15C179.735 90.413 179.381 90.7268 179.039 91.0911C178.696 91.4554 178.407 91.8602 178.171 92.3054C177.85 92.9327 177.486 93.7423 177.079 94.7339C176.672 95.7255 176.201 96.778 175.666 97.8911C175.152 99.0041 174.574 100.097 173.931 101.17C173.31 102.222 172.614 103.133 171.843 103.902C171.308 104.448 170.623 104.914 169.788 105.298C168.974 105.683 168.203 105.875 167.475 105.875ZM195.872 105.663C195.659 105.663 195.476 105.622 195.326 105.541C195.177 105.46 195.101 105.308 195.101 105.086C195.101 104.802 195.177 104.479 195.326 104.114C195.476 103.75 195.648 103.396 195.84 103.052C196.033 102.687 196.205 102.394 196.354 102.171C195.604 102.92 194.824 103.629 194.009 104.296C193.603 104.62 193.153 104.924 192.66 105.207C192.167 105.491 191.644 105.632 191.086 105.632C190.873 105.632 190.722 105.571 190.637 105.45C190.551 105.308 190.508 105.146 190.508 104.964C190.508 104.863 190.519 104.792 190.54 104.752C190.648 103.962 190.914 103.143 191.343 102.293C191.772 101.443 192.296 100.643 192.917 99.8946C193.539 99.1459 194.17 98.5387 194.812 98.0732C195.54 97.547 196.343 97.2839 197.221 97.2839H200.915C201.023 97.2839 201.076 97.3245 201.076 97.4054C201.076 97.5673 200.98 97.6482 200.787 97.6482C200.573 97.6482 200.358 97.7798 200.144 98.0429C199.931 98.2857 199.77 98.488 199.663 98.65C199.513 98.8727 199.277 99.247 198.956 99.7732C198.635 100.299 198.302 100.876 197.96 101.504C197.639 102.111 197.361 102.677 197.125 103.204C196.889 103.73 196.772 104.114 196.772 104.357C196.772 104.641 196.921 104.782 197.221 104.782C197.543 104.782 197.907 104.641 198.314 104.357C198.72 104.074 199.128 103.73 199.534 103.325C199.963 102.9 200.348 102.485 200.691 102.08C201.055 101.655 201.344 101.321 201.558 101.079C201.686 101.2 201.675 101.372 201.526 101.595C201.397 101.797 201.28 101.959 201.172 102.08C200.744 102.607 200.252 103.153 199.695 103.72C199.137 104.266 198.527 104.732 197.864 105.116C197.221 105.48 196.558 105.663 195.872 105.663ZM192.403 104.6C192.66 104.6 193.014 104.428 193.463 104.084C193.934 103.72 194.438 103.274 194.973 102.748C195.508 102.202 196.012 101.635 196.483 101.048C196.953 100.441 197.339 99.8946 197.639 99.4089C197.96 98.903 198.121 98.5184 198.121 98.2554C198.121 98.0327 198.045 97.8809 197.896 97.8C197.768 97.7191 197.596 97.6786 197.382 97.6786C197.04 97.6786 196.664 97.8 196.258 98.0429C195.872 98.2655 195.562 98.488 195.326 98.7107C195.069 98.9334 194.759 99.2875 194.395 99.7732C194.053 100.239 193.709 100.755 193.367 101.321C193.025 101.888 192.736 102.434 192.5 102.961C192.264 103.487 192.146 103.912 192.146 104.236C192.146 104.479 192.231 104.6 192.403 104.6ZM207.627 93.975C207.327 93.975 207.113 93.8839 206.985 93.7018C206.9 93.6005 206.856 93.4691 206.856 93.3071C206.856 92.9834 207.017 92.7202 207.338 92.5179C207.574 92.3964 207.788 92.3357 207.98 92.3357C208.302 92.3357 208.527 92.4268 208.655 92.6089C208.74 92.7102 208.783 92.8416 208.783 93.0036C208.783 93.3273 208.612 93.5905 208.27 93.7929C208.077 93.9143 207.863 93.975 207.627 93.975ZM202.038 105.663C201.824 105.663 201.641 105.622 201.492 105.541C201.363 105.46 201.299 105.308 201.299 105.086C201.299 104.802 201.375 104.468 201.524 104.084C201.696 103.699 201.877 103.315 202.07 102.93C202.284 102.546 202.444 102.232 202.552 101.989C202.701 101.706 202.884 101.342 203.098 100.896C203.334 100.431 203.548 99.9959 203.74 99.5911C203.954 99.1661 204.105 98.8727 204.19 98.7107C203.89 99.0143 203.527 99.3988 203.098 99.8643C202.692 100.309 202.306 100.745 201.942 101.17C201.577 101.595 201.299 101.929 201.107 102.171C201.042 102.252 200.989 102.293 200.946 102.293C200.903 102.293 200.882 102.242 200.882 102.141C200.882 101.979 200.935 101.827 201.042 101.686C201.449 101.2 201.898 100.654 202.391 100.046C202.905 99.4393 203.366 98.8827 203.773 98.3768C204.179 97.8505 204.436 97.5066 204.543 97.3446C204.78 97.3041 205.122 97.2434 205.571 97.1625C206.042 97.0816 206.363 96.9702 206.535 96.8286C206.599 96.7679 206.663 96.7375 206.728 96.7375C206.771 96.7375 206.792 96.778 206.792 96.8589C206.813 96.9196 206.792 96.9905 206.728 97.0714C206.599 97.213 206.374 97.5571 206.053 98.1036C205.732 98.65 205.39 99.2571 205.025 99.925C204.683 100.573 204.362 101.159 204.062 101.686C203.761 102.232 203.504 102.758 203.291 103.264C203.077 103.77 202.97 104.134 202.97 104.357C202.97 104.641 203.119 104.782 203.419 104.782C203.697 104.782 204.05 104.62 204.479 104.296C204.929 103.973 205.379 103.588 205.828 103.143C206.278 102.677 206.675 102.252 207.017 101.868C207.124 101.746 207.253 101.605 207.402 101.443C207.574 101.261 207.68 101.149 207.723 101.109C207.767 101.149 207.788 101.22 207.788 101.321C207.767 101.463 207.712 101.605 207.627 101.746C207.542 101.868 207.455 101.979 207.37 102.08C206.92 102.607 206.427 103.153 205.893 103.72C205.358 104.266 204.768 104.732 204.126 105.116C203.483 105.48 202.788 105.663 202.038 105.663ZM208.411 105.663C208.196 105.663 208.014 105.622 207.865 105.541C207.714 105.46 207.64 105.308 207.64 105.086C207.64 104.802 207.714 104.468 207.865 104.084C208.035 103.699 208.218 103.315 208.411 102.93C208.604 102.546 208.764 102.232 208.893 101.989C208.999 101.807 209.138 101.524 209.31 101.139C209.503 100.734 209.696 100.32 209.888 99.8946C210.102 99.4495 210.274 99.075 210.402 98.7714C210.552 98.4679 210.627 98.3161 210.627 98.3161C210.435 98.5184 210.178 98.8018 209.856 99.1661C209.556 99.5304 209.224 99.9148 208.861 100.32C208.517 100.704 208.196 101.068 207.897 101.412C207.617 101.757 207.415 102.009 207.287 102.171C207.222 102.252 207.168 102.293 207.126 102.293C207.083 102.293 207.062 102.242 207.062 102.141C207.062 101.979 207.115 101.827 207.222 101.686C207.479 101.382 207.789 101.018 208.154 100.593C208.517 100.148 208.881 99.7023 209.246 99.2571C209.631 98.812 209.962 98.4173 210.242 98.0732C210.07 98.0732 209.845 98.0834 209.567 98.1036C209.31 98.1238 209.074 98.1541 208.861 98.1946C208.645 98.2148 208.528 98.225 208.507 98.225C208.4 98.225 208.411 98.1441 208.539 97.9821C208.668 97.8202 208.838 97.6584 209.053 97.4964C209.267 97.3345 209.428 97.2536 209.535 97.2536C209.556 97.2536 209.728 97.2637 210.049 97.2839C210.37 97.2839 210.605 97.2839 210.756 97.2839C211.183 96.7375 211.601 96.1102 212.008 95.4018C212.436 94.6934 212.853 93.9143 213.261 93.0643C213.431 93.0441 213.721 92.9327 214.128 92.7304C214.556 92.5077 214.888 92.2852 215.124 92.0625C215.23 91.9613 215.317 91.9107 215.381 91.9107C215.51 91.9107 215.51 91.9916 215.381 92.1536C215.23 92.3155 214.973 92.6595 214.61 93.1857C214.246 93.6916 213.839 94.3089 213.39 95.0375C212.94 95.7459 212.511 96.4946 212.105 97.2839H214.707C214.941 97.2839 215.06 97.3143 215.06 97.375C215.06 97.4559 214.899 97.537 214.578 97.6179C214.214 97.7191 213.828 97.7798 213.422 97.8C213.036 97.8202 212.672 97.8607 212.33 97.9214C212.008 97.9821 211.772 98.1137 211.623 98.3161C211.495 98.4577 211.311 98.7613 211.077 99.2268C210.841 99.6923 210.584 100.229 210.306 100.836C210.049 101.423 209.824 102.02 209.631 102.627C209.439 103.214 209.32 103.709 209.278 104.114V104.236C209.278 104.398 209.331 104.529 209.439 104.63C209.545 104.732 209.652 104.782 209.76 104.782C210.038 104.782 210.391 104.62 210.82 104.296C211.27 103.973 211.729 103.588 212.201 103.143C212.672 102.677 213.078 102.252 213.422 101.868C213.571 101.706 213.7 101.554 213.807 101.412C213.936 101.271 214.01 101.18 214.032 101.139C214.074 101.22 214.096 101.281 214.096 101.321C214.096 101.443 214.053 101.574 213.968 101.716C213.904 101.858 213.828 101.979 213.743 102.08C213.335 102.586 212.844 103.123 212.265 103.689C211.687 104.236 211.066 104.701 210.402 105.086C209.76 105.47 209.095 105.663 208.411 105.663ZM215.325 105.814C214.446 105.814 213.836 105.652 213.494 105.329C213.15 105.005 212.98 104.61 212.98 104.145C212.98 103.558 213.141 102.93 213.462 102.262C213.804 101.595 214.125 101.028 214.426 100.563C214.768 100.077 215.229 99.5709 215.807 99.0446C216.385 98.5184 217.016 98.0732 217.702 97.7089C218.386 97.3446 219.051 97.1625 219.693 97.1625C220.249 97.1625 220.635 97.2941 220.85 97.5571C221.063 97.8 221.171 98.0934 221.171 98.4375C221.171 99.0648 220.967 99.5809 220.561 99.9857C220.175 100.391 219.693 100.724 219.115 100.987C218.537 101.23 217.98 101.433 217.445 101.595C217.124 101.676 216.748 101.757 216.321 101.838C215.892 101.918 215.486 101.959 215.1 101.959C214.949 102.323 214.832 102.677 214.747 103.021C214.66 103.366 214.618 103.679 214.618 103.963C214.618 104.307 214.703 104.59 214.875 104.812C215.068 105.035 215.378 105.146 215.807 105.146C215.977 105.146 216.181 105.126 216.417 105.086C216.652 105.045 216.909 104.984 217.188 104.904C217.83 104.701 218.462 104.377 219.083 103.932C219.703 103.487 220.272 103.011 220.786 102.505C221.32 101.979 221.727 101.544 222.006 101.2C222.07 101.261 222.103 101.332 222.103 101.412C222.103 101.514 222.027 101.676 221.878 101.898C221.449 102.465 220.892 103.052 220.207 103.659C219.522 104.266 218.762 104.782 217.927 105.207C217.092 105.612 216.224 105.814 215.325 105.814ZM215.357 101.352C215.635 101.372 215.945 101.372 216.289 101.352C216.652 101.311 217.005 101.241 217.349 101.139C218.226 100.896 218.858 100.512 219.244 99.9857C219.65 99.4393 219.854 98.9536 219.854 98.5286C219.854 98.2857 219.799 98.0834 219.693 97.9214C219.586 97.7595 219.414 97.6786 219.18 97.6786C218.558 97.6786 218.001 97.9012 217.509 98.3464C217.016 98.7714 216.587 99.2673 216.224 99.8339C215.86 100.401 215.571 100.907 215.357 101.352Z" fill="#EBA25E"/>
<path d="M140.453 105.845C140.174 105.845 139.843 105.794 139.457 105.693C139.072 105.612 138.879 105.389 138.879 105.025C138.879 104.883 138.911 104.721 138.975 104.539C139.04 104.357 139.104 104.195 139.168 104.054C139.382 103.527 139.607 102.991 139.843 102.445C140.078 101.898 140.324 101.342 140.581 100.775C140.303 101.079 140.035 101.362 139.778 101.625C139.543 101.868 139.371 102.05 139.264 102.171C139.2 102.252 139.146 102.293 139.104 102.293C139.061 102.293 139.04 102.242 139.04 102.141C139.04 101.979 139.093 101.827 139.2 101.686C139.5 101.321 139.843 100.937 140.228 100.532C140.613 100.127 140.988 99.7023 141.352 99.2571C142.252 97.4762 143.258 95.7559 144.372 94.0964C145.485 92.4166 146.738 90.9291 148.13 89.6339C148.558 89.2495 149.04 88.8548 149.575 88.45C150.111 88.0452 150.678 87.7012 151.278 87.4179C151.899 87.1345 152.509 86.9929 153.109 86.9929C153.43 86.9929 153.719 87.0738 153.976 87.2357C154.254 87.3977 154.404 87.6505 154.426 87.9946V88.875C154.426 88.9559 154.361 88.9964 154.233 88.9964C154.169 88.9964 154.136 88.9762 154.136 88.9357C154.136 88.612 153.986 88.3995 153.687 88.2982C153.387 88.1768 153.087 88.1161 152.787 88.1161C151.61 88.1161 150.55 88.4095 149.607 88.9964C148.665 89.563 147.83 90.312 147.102 91.2429C146.374 92.1536 145.721 93.1655 145.143 94.2786C144.564 95.3714 144.04 96.4541 143.569 97.5268C143.119 98.5791 142.691 99.5202 142.284 100.35C142.284 100.35 142.284 100.37 142.284 100.411C142.284 100.451 142.294 100.471 142.316 100.471C142.337 100.471 142.509 100.32 142.83 100.016C143.172 99.6923 143.59 99.3179 144.083 98.8929C144.596 98.4679 145.132 98.1036 145.689 97.8C146.245 97.4762 146.759 97.3143 147.23 97.3143C147.466 97.3143 147.616 97.3952 147.68 97.5571C147.744 97.6988 147.776 97.8607 147.776 98.0429V98.3161C147.669 99.0648 147.391 99.8745 146.941 100.745C146.513 101.615 145.956 102.445 145.271 103.234C144.607 104.003 143.858 104.63 143.023 105.116C142.209 105.602 141.352 105.845 140.453 105.845ZM140.967 105.329C141.309 105.329 141.673 105.207 142.059 104.964C142.466 104.701 142.776 104.468 142.99 104.266C143.247 104.043 143.558 103.699 143.922 103.234C144.286 102.748 144.639 102.222 144.982 101.655C145.325 101.089 145.614 100.542 145.849 100.016C146.085 99.4898 146.203 99.0648 146.203 98.7411C146.203 98.6398 146.181 98.5488 146.138 98.4679C146.095 98.387 146.02 98.3464 145.913 98.3464C145.721 98.3464 145.464 98.4577 145.143 98.6804C144.843 98.903 144.511 99.1762 144.147 99.5C143.804 99.8036 143.483 100.107 143.183 100.411C142.905 100.694 142.701 100.907 142.573 101.048C142.337 101.291 142.037 101.645 141.673 102.111C141.309 102.576 140.977 103.052 140.678 103.537C140.399 104.003 140.26 104.398 140.26 104.721C140.26 105.126 140.496 105.329 140.967 105.329ZM144.422 116.196C143.608 116.196 142.826 116.014 142.077 115.65C141.306 115.306 140.738 114.77 140.374 114.041C140.246 113.778 140.16 113.495 140.117 113.191C140.074 112.908 140.053 112.624 140.053 112.341V112.007C140.053 111.845 140.074 111.693 140.117 111.552C140.16 111.43 140.267 111.37 140.439 111.37C140.481 111.37 140.503 111.39 140.503 111.43C140.503 111.552 140.492 111.673 140.471 111.795C140.449 111.916 140.439 112.048 140.439 112.189C140.439 113.12 140.76 113.829 141.402 114.314C142.023 114.8 142.805 115.043 143.747 115.043C144.132 115.043 144.529 115.002 144.936 114.921C145.342 114.841 145.728 114.729 146.092 114.587C147.441 114.041 148.608 113.262 149.593 112.25C150.599 111.258 151.477 110.135 152.227 108.88C152.976 107.626 153.651 106.351 154.251 105.055C154.593 104.286 154.893 103.537 155.15 102.809C155.428 102.08 155.675 101.423 155.889 100.836C155.675 101.119 155.396 101.463 155.054 101.868C154.711 102.273 154.368 102.667 154.026 103.052C153.683 103.416 153.383 103.709 153.126 103.932C152.591 104.418 152.013 104.833 151.392 105.177C150.792 105.501 150.171 105.663 149.529 105.663C149.315 105.663 149.133 105.622 148.983 105.541C148.833 105.46 148.758 105.308 148.758 105.086C148.758 104.802 148.833 104.468 148.983 104.084C149.154 103.699 149.336 103.315 149.529 102.93C149.722 102.546 149.882 102.232 150.011 101.989C150.268 101.524 150.514 101.058 150.749 100.593C150.985 100.127 151.188 99.7327 151.36 99.4089C151.531 99.1054 151.617 98.903 151.617 98.8018C151.617 98.6398 151.488 98.6398 151.231 98.8018C150.996 98.9637 150.771 99.1255 150.557 99.2875C150.086 99.7125 149.593 100.218 149.079 100.805C148.565 101.372 148.169 101.827 147.891 102.171C147.826 102.252 147.773 102.293 147.73 102.293C147.687 102.293 147.666 102.242 147.666 102.141C147.666 101.979 147.719 101.827 147.826 101.686C148.126 101.281 148.479 100.836 148.886 100.35C149.293 99.8643 149.711 99.3988 150.139 98.9536C150.546 98.5488 150.964 98.1541 151.392 97.7696C151.82 97.3852 152.366 97.1929 153.03 97.1929C153.48 97.1929 153.705 97.3548 153.705 97.6786C153.705 97.962 153.576 98.2857 153.319 98.65C153.169 98.8727 152.934 99.247 152.612 99.7732C152.291 100.299 151.959 100.876 151.617 101.504C151.296 102.111 151.017 102.677 150.782 103.204C150.546 103.73 150.428 104.114 150.428 104.357C150.428 104.641 150.578 104.782 150.878 104.782C151.113 104.782 151.402 104.671 151.745 104.448C152.088 104.205 152.441 103.922 152.805 103.598C153.426 103.032 153.994 102.404 154.508 101.716C155.043 101.028 155.503 100.37 155.889 99.7429C155.953 99.6416 156.06 99.4595 156.21 99.1964C156.381 98.9334 156.553 98.6804 156.724 98.4375C156.917 98.1946 157.067 98.053 157.174 98.0125C157.281 97.972 157.495 97.8607 157.816 97.6786C158.137 97.4964 158.459 97.375 158.78 97.3143C159.079 97.2536 159.304 97.2232 159.454 97.2232C159.69 97.2232 159.808 97.2839 159.808 97.4054C159.808 97.5673 159.711 97.6482 159.519 97.6482C159.283 97.6482 159.069 97.7089 158.876 97.8304C158.683 97.9316 158.533 98.063 158.426 98.225C158.234 98.488 157.955 98.9637 157.591 99.6518C157.249 100.34 156.863 101.139 156.435 102.05C156.028 102.941 155.621 103.851 155.214 104.782C154.807 105.693 154.433 106.533 154.09 107.302C153.576 108.455 152.987 109.579 152.323 110.671C151.659 111.784 150.878 112.776 149.979 113.646C149.101 114.537 148.051 115.235 146.831 115.741C146.102 116.045 145.299 116.196 144.422 116.196ZM166.832 105.875C166.168 105.875 165.537 105.703 164.937 105.359C164.338 104.995 163.888 104.448 163.588 103.72C163.481 103.457 163.406 103.183 163.363 102.9C163.32 102.596 163.299 102.303 163.299 102.02C163.299 101.736 163.353 101.595 163.46 101.595C163.588 101.595 163.652 101.676 163.652 101.838C163.652 102.789 163.899 103.507 164.391 103.993C164.905 104.479 165.537 104.721 166.286 104.721C167.036 104.721 167.753 104.519 168.438 104.114C169.145 103.709 169.798 103.193 170.398 102.566C171.383 101.554 172.218 100.532 172.903 99.5C173.588 98.4477 174.21 97.375 174.766 96.2821C175.345 95.1691 175.923 94.0155 176.501 92.8214C176.865 92.0929 177.315 91.4554 177.85 90.9089C178.407 90.3625 179.071 89.988 179.842 89.7857L179.874 89.7554H178.107C177.357 89.7554 176.565 89.7857 175.73 89.8464C174.895 89.9071 174.135 90.0387 173.449 90.2411C172.785 90.4434 172.304 90.747 172.004 91.1518C171.811 91.4148 171.715 91.7184 171.715 92.0625C171.715 92.4066 171.811 92.7405 172.004 93.0643C172.197 93.388 172.443 93.6209 172.743 93.7625C172.785 93.803 172.807 93.8334 172.807 93.8536C172.807 93.8941 172.753 93.9446 172.646 94.0054C172.561 94.0459 172.464 94.0559 172.357 94.0357C172.186 93.9345 171.972 93.7727 171.715 93.55C171.458 93.3071 171.222 93.0541 171.008 92.7911C170.815 92.528 170.687 92.3054 170.623 92.1232C170.537 91.8804 170.494 91.6375 170.494 91.3946C170.494 90.9089 170.676 90.5143 171.04 90.2107C171.426 89.9071 171.918 89.6745 172.518 89.5125C173.117 89.3505 173.76 89.2393 174.445 89.1786C175.152 89.0977 175.826 89.0571 176.469 89.0571C177.133 89.037 177.7 89.0268 178.171 89.0268H181.641C181.683 89.0268 181.705 89.037 181.705 89.0571C181.705 89.1179 181.63 89.2089 181.48 89.3304C181.352 89.4316 181.265 89.4821 181.223 89.4821C180.687 89.5834 180.292 89.8566 180.035 90.3018C179.778 90.7268 179.659 91.4148 179.682 92.3661C179.682 92.3661 179.682 92.5887 179.682 93.0339C179.702 93.4791 179.723 94.0559 179.746 94.7643C179.767 95.4727 179.788 96.2316 179.81 97.0411C179.831 97.8505 179.852 98.6298 179.874 99.3786C179.895 100.127 179.916 100.755 179.938 101.261V101.443L191.085 90.3321C191.791 89.6238 192.487 89.0268 193.172 88.5411C193.879 88.0352 194.607 87.8125 195.357 87.8732C195.378 87.8732 195.389 87.8834 195.389 87.9036C195.41 87.9036 195.421 87.9036 195.421 87.9036C195.421 87.9643 195.378 88.0352 195.292 88.1161C195.206 88.197 195.109 88.2477 195.003 88.2679C194.446 88.2477 193.943 88.45 193.494 88.875C193.044 89.3 192.626 89.8059 192.241 90.3929C192.048 90.6964 191.759 91.1821 191.374 91.85C190.988 92.4977 190.548 93.2666 190.057 94.1571C189.584 95.0477 189.103 95.9887 188.611 96.9804C188.118 97.972 187.657 98.9434 187.23 99.8946C186.822 100.846 186.491 101.716 186.234 102.505C185.977 103.274 185.849 103.902 185.849 104.387C185.849 104.954 186.051 105.238 186.459 105.238C186.629 105.238 186.812 105.197 187.005 105.116C187.283 105.015 187.593 104.863 187.937 104.661C188.279 104.458 188.589 104.226 188.868 103.963C189.424 103.457 189.917 102.941 190.346 102.414C190.773 101.868 191.03 101.554 191.117 101.473C191.181 101.392 191.234 101.352 191.277 101.352C191.362 101.352 191.406 101.412 191.406 101.534C191.406 101.655 191.362 101.767 191.277 101.868C191.105 102.07 190.816 102.424 190.41 102.93C190.002 103.416 189.52 103.912 188.965 104.418C188.428 104.924 187.85 105.308 187.23 105.571C187.037 105.652 186.833 105.713 186.62 105.754C186.404 105.814 186.191 105.845 185.977 105.845C185.505 105.845 185.078 105.713 184.692 105.45C184.328 105.167 184.146 104.701 184.146 104.054C184.146 103.426 184.296 102.718 184.596 101.929C184.917 101.119 185.271 100.34 185.656 99.5911C186.062 98.822 186.395 98.1745 186.652 97.6482C186.93 97.1018 187.283 96.4036 187.712 95.5536C188.139 94.7036 188.632 93.8434 189.189 92.9732L179.938 102.202C179.916 102.364 179.842 102.526 179.714 102.688C179.585 102.829 179.381 102.951 179.103 103.052C178.953 103.112 178.749 103.274 178.492 103.537C178.235 103.801 178.064 103.983 177.978 104.084C177.978 104.104 177.946 104.114 177.882 104.114C177.818 104.114 177.754 104.094 177.689 104.054C177.625 104.013 177.604 103.983 177.625 103.963C178.182 103.295 178.471 102.374 178.492 101.2L178.525 100.471C178.567 99.6214 178.599 98.7309 178.621 97.8C178.642 96.8488 178.653 95.9684 178.653 95.1589C178.674 94.3291 178.685 93.6613 178.685 93.1554C178.685 92.6291 178.685 92.3661 178.685 92.3661C178.685 91.8804 178.76 91.4554 178.91 91.0911C179.06 90.7268 179.242 90.413 179.456 90.15C179.092 90.413 178.739 90.7268 178.396 91.0911C178.053 91.4554 177.764 91.8602 177.529 92.3054C177.208 92.9327 176.843 93.7423 176.437 94.7339C176.03 95.7255 175.559 96.778 175.023 97.8911C174.509 99.0041 173.931 100.097 173.289 101.17C172.668 102.222 171.972 103.133 171.201 103.902C170.665 104.448 169.98 104.914 169.145 105.298C168.331 105.683 167.56 105.875 166.832 105.875ZM195.23 105.663C195.016 105.663 194.833 105.622 194.684 105.541C194.534 105.46 194.459 105.308 194.459 105.086C194.459 104.802 194.534 104.479 194.684 104.114C194.833 103.75 195.005 103.396 195.198 103.052C195.39 102.687 195.562 102.394 195.712 102.171C194.962 102.92 194.181 103.629 193.367 104.296C192.96 104.62 192.511 104.924 192.018 105.207C191.525 105.491 191.001 105.632 190.444 105.632C190.23 105.632 190.079 105.571 189.994 105.45C189.909 105.308 189.866 105.146 189.866 104.964C189.866 104.863 189.877 104.792 189.898 104.752C190.005 103.962 190.272 103.143 190.701 102.293C191.13 101.443 191.653 100.643 192.275 99.8946C192.896 99.1459 193.527 98.5387 194.17 98.0732C194.897 97.547 195.7 97.2839 196.579 97.2839H200.273C200.38 97.2839 200.433 97.3245 200.433 97.4054C200.433 97.5673 200.337 97.6482 200.144 97.6482C199.931 97.6482 199.716 97.7798 199.502 98.0429C199.288 98.2857 199.128 98.488 199.02 98.65C198.871 98.8727 198.635 99.247 198.313 99.7732C197.992 100.299 197.66 100.876 197.318 101.504C196.996 102.111 196.719 102.677 196.483 103.204C196.246 103.73 196.129 104.114 196.129 104.357C196.129 104.641 196.279 104.782 196.579 104.782C196.9 104.782 197.265 104.641 197.671 104.357C198.077 104.074 198.485 103.73 198.892 103.325C199.32 102.9 199.706 102.485 200.048 102.08C200.413 101.655 200.702 101.321 200.915 101.079C201.044 101.2 201.032 101.372 200.883 101.595C200.755 101.797 200.637 101.959 200.53 102.08C200.101 102.607 199.61 103.153 199.052 103.72C198.495 104.266 197.885 104.732 197.221 105.116C196.579 105.48 195.916 105.663 195.23 105.663ZM191.761 104.6C192.018 104.6 192.371 104.428 192.821 104.084C193.291 103.72 193.796 103.274 194.33 102.748C194.865 102.202 195.37 101.635 195.84 101.048C196.311 100.441 196.696 99.8946 196.996 99.4089C197.318 98.903 197.478 98.5184 197.478 98.2554C197.478 98.0327 197.403 97.8809 197.253 97.8C197.125 97.7191 196.953 97.6786 196.739 97.6786C196.397 97.6786 196.022 97.8 195.615 98.0429C195.23 98.2655 194.92 98.488 194.684 98.7107C194.427 98.9334 194.117 99.2875 193.752 99.7732C193.41 100.239 193.066 100.755 192.724 101.321C192.382 101.888 192.093 102.434 191.857 102.961C191.621 103.487 191.504 103.912 191.504 104.236C191.504 104.479 191.589 104.6 191.761 104.6ZM206.985 93.975C206.684 93.975 206.471 93.8839 206.342 93.7018C206.257 93.6005 206.214 93.4691 206.214 93.3071C206.214 92.9834 206.374 92.7202 206.695 92.5179C206.932 92.3964 207.145 92.3357 207.338 92.3357C207.659 92.3357 207.884 92.4268 208.012 92.6089C208.098 92.7102 208.141 92.8416 208.141 93.0036C208.141 93.3273 207.969 93.5905 207.627 93.7929C207.434 93.9143 207.221 93.975 206.985 93.975ZM201.395 105.663C201.182 105.663 200.999 105.622 200.849 105.541C200.721 105.46 200.657 105.308 200.657 105.086C200.657 104.802 200.732 104.468 200.882 104.084C201.053 103.699 201.235 103.315 201.428 102.93C201.641 102.546 201.802 102.232 201.909 101.989C202.059 101.706 202.242 101.342 202.455 100.896C202.692 100.431 202.905 99.9959 203.098 99.5911C203.311 99.1661 203.462 98.8727 203.548 98.7107C203.247 99.0143 202.884 99.3988 202.455 99.8643C202.049 100.309 201.664 100.745 201.299 101.17C200.935 101.595 200.657 101.929 200.464 102.171C200.4 102.252 200.347 102.293 200.303 102.293C200.26 102.293 200.239 102.242 200.239 102.141C200.239 101.979 200.292 101.827 200.4 101.686C200.806 101.2 201.256 100.654 201.749 100.046C202.263 99.4393 202.724 98.8827 203.13 98.3768C203.536 97.8505 203.793 97.5066 203.901 97.3446C204.137 97.3041 204.479 97.2434 204.929 97.1625C205.399 97.0816 205.721 96.9702 205.892 96.8286C205.957 96.7679 206.021 96.7375 206.085 96.7375C206.129 96.7375 206.149 96.778 206.149 96.8589C206.17 96.9196 206.149 96.9905 206.085 97.0714C205.957 97.213 205.732 97.5571 205.411 98.1036C205.089 98.65 204.747 99.2571 204.383 99.925C204.041 100.573 203.719 101.159 203.419 101.686C203.119 102.232 202.862 102.758 202.648 103.264C202.435 103.77 202.327 104.134 202.327 104.357C202.327 104.641 202.476 104.782 202.777 104.782C203.055 104.782 203.408 104.62 203.837 104.296C204.286 103.973 204.736 103.588 205.186 103.143C205.635 102.677 206.032 102.252 206.374 101.868C206.482 101.746 206.61 101.605 206.76 101.443C206.932 101.261 207.038 101.149 207.081 101.109C207.124 101.149 207.145 101.22 207.145 101.321C207.124 101.463 207.07 101.605 206.985 101.746C206.899 101.868 206.813 101.979 206.728 102.08C206.278 102.607 205.785 103.153 205.25 103.72C204.715 104.266 204.126 104.732 203.483 105.116C202.841 105.48 202.145 105.663 201.395 105.663ZM207.768 105.663C207.553 105.663 207.372 105.622 207.222 105.541C207.071 105.46 206.997 105.308 206.997 105.086C206.997 104.802 207.071 104.468 207.222 104.084C207.392 103.699 207.576 103.315 207.768 102.93C207.961 102.546 208.122 102.232 208.25 101.989C208.356 101.807 208.496 101.524 208.668 101.139C208.86 100.734 209.053 100.32 209.246 99.8946C209.459 99.4495 209.631 99.075 209.76 98.7714C209.909 98.4679 209.985 98.3161 209.985 98.3161C209.792 98.5184 209.535 98.8018 209.214 99.1661C208.913 99.5304 208.581 99.9148 208.218 100.32C207.874 100.704 207.553 101.068 207.254 101.412C206.975 101.757 206.773 102.009 206.644 102.171C206.58 102.252 206.525 102.293 206.483 102.293C206.44 102.293 206.419 102.242 206.419 102.141C206.419 101.979 206.472 101.827 206.58 101.686C206.837 101.382 207.147 101.018 207.511 100.593C207.874 100.148 208.239 99.7023 208.603 99.2571C208.989 98.812 209.32 98.4173 209.599 98.0732C209.427 98.0732 209.203 98.0834 208.925 98.1036C208.668 98.1238 208.432 98.1541 208.218 98.1946C208.003 98.2148 207.886 98.225 207.865 98.225C207.757 98.225 207.768 98.1441 207.897 97.9821C208.025 97.8202 208.196 97.6584 208.411 97.4964C208.624 97.3345 208.785 97.2536 208.893 97.2536C208.913 97.2536 209.085 97.2637 209.406 97.2839C209.728 97.2839 209.962 97.2839 210.113 97.2839C210.54 96.7375 210.958 96.1102 211.366 95.4018C211.793 94.6934 212.211 93.9143 212.619 93.0643C212.789 93.0441 213.078 92.9327 213.486 92.7304C213.913 92.5077 214.246 92.2852 214.482 92.0625C214.588 91.9613 214.674 91.9107 214.739 91.9107C214.867 91.9107 214.867 91.9916 214.739 92.1536C214.588 92.3155 214.331 92.6595 213.968 93.1857C213.603 93.6916 213.197 94.3089 212.747 95.0375C212.297 95.7459 211.869 96.4946 211.462 97.2839H214.064C214.299 97.2839 214.417 97.3143 214.417 97.375C214.417 97.4559 214.257 97.537 213.936 97.6179C213.571 97.7191 213.186 97.7798 212.779 97.8C212.394 97.8202 212.029 97.8607 211.687 97.9214C211.366 97.9821 211.13 98.1137 210.98 98.3161C210.852 98.4577 210.669 98.7613 210.434 99.2268C210.198 99.6923 209.941 100.229 209.663 100.836C209.406 101.423 209.182 102.02 208.989 102.627C208.796 103.214 208.677 103.709 208.636 104.114V104.236C208.636 104.398 208.689 104.529 208.796 104.63C208.902 104.732 209.01 104.782 209.117 104.782C209.395 104.782 209.749 104.62 210.177 104.296C210.627 103.973 211.086 103.588 211.559 103.143C212.029 102.677 212.436 102.252 212.779 101.868C212.929 101.706 213.057 101.554 213.165 101.412C213.293 101.271 213.367 101.18 213.39 101.139C213.431 101.22 213.454 101.281 213.454 101.321C213.454 101.443 213.41 101.574 213.325 101.716C213.261 101.858 213.186 101.979 213.1 102.08C212.692 102.586 212.201 103.123 211.623 103.689C211.045 104.236 210.423 104.701 209.76 105.086C209.117 105.47 208.452 105.663 207.768 105.663ZM214.682 105.814C213.804 105.814 213.194 105.652 212.851 105.329C212.508 105.005 212.338 104.61 212.338 104.145C212.338 103.558 212.498 102.93 212.819 102.262C213.161 101.595 213.483 101.028 213.783 100.563C214.125 100.077 214.586 99.5709 215.164 99.0446C215.742 98.5184 216.374 98.0732 217.059 97.7089C217.744 97.3446 218.408 97.1625 219.051 97.1625C219.607 97.1625 219.992 97.2941 220.207 97.5571C220.421 97.8 220.528 98.0934 220.528 98.4375C220.528 99.0648 220.324 99.5809 219.918 99.9857C219.533 100.391 219.051 100.724 218.473 100.987C217.895 101.23 217.337 101.433 216.802 101.595C216.481 101.676 216.105 101.757 215.678 101.838C215.249 101.918 214.843 101.959 214.458 101.959C214.307 102.323 214.189 102.677 214.104 103.021C214.017 103.366 213.976 103.679 213.976 103.963C213.976 104.307 214.061 104.59 214.233 104.812C214.425 105.035 214.735 105.146 215.164 105.146C215.334 105.146 215.538 105.126 215.775 105.086C216.009 105.045 216.266 104.984 216.545 104.904C217.188 104.701 217.819 104.377 218.441 103.932C219.061 103.487 219.629 103.011 220.143 102.505C220.678 101.979 221.084 101.544 221.364 101.2C221.428 101.261 221.46 101.332 221.46 101.412C221.46 101.514 221.384 101.676 221.235 101.898C220.806 102.465 220.249 103.052 219.565 103.659C218.879 104.266 218.119 104.782 217.284 105.207C216.449 105.612 215.582 105.814 214.682 105.814ZM214.715 101.352C214.992 101.372 215.302 101.372 215.646 101.352C216.009 101.311 216.362 101.241 216.706 101.139C217.583 100.896 218.216 100.512 218.601 99.9857C219.008 99.4393 219.211 98.9536 219.211 98.5286C219.211 98.2857 219.157 98.0834 219.051 97.9214C218.943 97.7595 218.771 97.6786 218.537 97.6786C217.915 97.6786 217.358 97.9012 216.867 98.3464C216.374 98.7714 215.945 99.2673 215.582 99.8339C215.217 100.401 214.928 100.907 214.715 101.352Z" fill="#D97A53"/>
</g>
<defs>
<clipPath id="clip0_546_14993">
<rect width="318" height="85" fill="white" transform="translate(19 57)"/>
</clipPath>
</defs>
</svg>
