<svg width="356" height="200" viewBox="0 0 356 200" fill="none" xmlns="http://www.w3.org/2000/svg">
<g clip-path="url(#clip0_546_14987)">
<rect width="356" height="200" fill="#FFFCF5"/>
<path d="M309.904 116.437C322.001 114.853 334.395 117.468 343.917 126.021C353.38 134.522 359.304 148.255 359.997 167.613L360 167.693V167.772C360 192.71 340 207.718 320.032 208.921C310.01 209.525 299.756 206.681 291.994 199.709C284.195 192.703 279.419 181.992 279.419 167.772V167.667L279.425 167.562C279.732 161.062 283.025 154.954 287.446 150.228C291.87 145.498 297.808 141.734 304.088 140.202C310.476 138.644 317.56 139.369 323.158 144.229C328.571 148.928 331.7 156.739 332.327 167.513L332.341 167.749L332.33 167.985C332.032 174.224 329.743 179.135 325.889 182.257C322.049 185.367 317.166 186.264 312.781 185.314C308.411 184.368 304.461 181.573 302.451 177.309C300.415 172.992 300.623 167.759 303.287 162.293C304.448 159.91 307.442 158.864 309.974 159.956C312.507 161.048 313.619 163.864 312.458 166.247C310.732 169.788 311.047 172.135 311.673 173.461C312.322 174.839 313.587 175.751 315.043 176.066C316.484 176.378 318.039 176.091 319.306 175.065C320.536 174.069 321.992 171.95 322.239 167.791C321.651 158.386 318.98 153.516 316.316 151.203C313.814 149.031 310.522 148.437 306.62 149.388C302.611 150.366 298.346 152.941 295.02 156.497C291.718 160.027 289.718 164.112 289.508 167.883C289.533 180.001 293.56 187.994 298.962 192.845C304.417 197.746 311.787 199.908 319.387 199.45C334.645 198.531 349.869 187.17 349.911 167.852C349.261 150.099 343.886 139.114 336.95 132.884C330.062 126.698 320.943 124.573 311.294 125.836C291.564 128.419 271.327 144.941 268.453 166.121C268.1 168.721 265.574 170.559 262.81 170.227C260.047 169.895 258.093 167.519 258.445 164.92C261.955 139.057 286.141 119.547 309.904 116.437Z" fill="#A8BFAF" fill-opacity="0.25"/>
<path d="M269.768 185.802C269.768 189.119 266.91 191.808 263.384 191.808C259.858 191.808 257 189.119 257 185.802C257 182.486 259.858 179.797 263.384 179.797C266.91 179.797 269.768 182.486 269.768 185.802Z" fill="#A8BFAF" fill-opacity="0.25"/>
<path d="M58.2518 71.2772C65.3482 70.2726 72.6027 71.9323 78.1734 77.3442C83.7119 82.7249 87.2009 91.4393 87.6091 103.775L87.6106 103.822V103.87C87.6106 119.679 75.8931 129.188 64.1936 129.95C58.3227 130.333 52.3248 128.53 47.7873 124.122C43.2289 119.694 40.4228 112.91 40.4228 103.87V103.807L40.4255 103.745C40.6042 99.6523 42.5235 95.7943 45.1124 92.8009C47.7036 89.8049 51.1767 87.4263 54.8395 86.4601C58.5613 85.4782 62.6671 85.9387 65.9095 88.9829C69.0507 91.9321 70.8904 96.8577 71.2595 103.716L71.2671 103.856L71.2609 103.996C71.0868 107.939 69.751 111.015 67.5287 112.961C65.3142 114.901 62.499 115.461 59.9702 114.869C57.45 114.278 55.1727 112.535 54.0133 109.876C52.8405 107.186 52.9526 103.907 54.5065 100.458C55.1433 99.0443 56.7858 98.4237 58.1751 99.0715C59.5645 99.7194 60.1746 101.39 59.5378 102.804C58.4983 105.112 58.6734 106.677 59.0727 107.593C59.4855 108.54 60.2892 109.165 61.2116 109.381C62.1253 109.595 63.1142 109.398 63.9174 108.695C64.6996 108.009 65.5786 106.591 65.7249 103.881C65.3774 97.834 63.7884 94.6535 62.1561 93.121C60.6122 91.6714 58.5866 91.2885 56.2286 91.9105C53.8116 92.5482 51.2565 94.2209 49.2675 96.5206C47.2921 98.8047 46.0829 101.463 45.9577 103.935C45.9711 111.729 48.3671 116.9 51.6096 120.05C54.882 123.229 59.2975 124.627 63.8398 124.331C72.9566 123.737 82.0552 116.39 82.0757 103.912C81.69 92.531 78.5023 85.4495 74.351 81.4165C70.2255 77.4085 64.7678 76.0398 59.0146 76.8543C47.2712 78.5167 35.2297 89.144 33.5178 102.787C33.3243 104.329 31.9384 105.42 30.4224 105.223C28.9064 105.026 27.8342 103.616 28.0278 102.074C30.0883 85.653 44.2961 73.2528 58.2518 71.2772Z" fill="#769382"/>
<path d="M34.5447 115.392C34.5447 117.512 32.8558 119.23 30.7724 119.23C28.6889 119.23 27 117.512 27 115.392C27 113.273 28.6889 111.554 30.7724 111.554C32.8558 111.554 34.5447 113.273 34.5447 115.392Z" fill="#769382"/>
<path d="M306.723 124.14C303.956 124.14 301.765 123.202 300.151 121.325C298.583 119.448 297.799 116.89 297.799 113.653C297.799 111.26 298.168 108.913 298.906 106.614C299.69 104.315 300.773 102.25 302.157 100.42C303.541 98.5902 305.155 97.1356 307 96.0563C308.845 94.9771 310.851 94.4375 313.019 94.4375C314.402 94.4375 315.625 94.6486 316.685 95.0709C317.792 95.4933 318.761 96.0329 319.591 96.6898C319.545 93.499 319.384 90.6367 319.107 88.1028C318.83 85.5689 318.161 83.2228 317.101 81.0643C316.916 80.6889 316.755 80.3604 316.616 80.0789C316.524 79.7504 316.478 79.4454 316.478 79.1639C316.478 78.5069 316.732 77.8969 317.239 77.3339C317.792 76.7708 318.461 76.3015 319.245 75.9261C320.029 75.5508 320.767 75.3631 321.459 75.3631C322.704 75.3631 323.627 75.9262 324.226 77.0523C324.872 78.1316 325.287 79.6331 325.472 81.557C325.656 83.4339 325.748 85.5924 325.748 88.0324C325.748 91.5986 325.587 94.8129 325.264 97.6752C324.941 100.538 324.641 103.048 324.365 105.206C324.18 106.614 324.019 107.834 323.88 108.866C323.742 109.899 323.673 110.743 323.673 111.4C323.673 114.732 325.08 116.703 327.893 117.313C328.631 117.453 329 117.946 329 118.791C329 119.307 328.839 119.964 328.516 120.762C328.239 121.559 327.709 122.287 326.925 122.944C326.14 123.554 325.01 123.859 323.535 123.859C321.551 123.859 320.214 123.178 319.522 121.817C318.83 120.457 318.484 118.392 318.484 115.623C317.193 118.017 315.555 120.034 313.572 121.677C311.589 123.319 309.306 124.14 306.723 124.14ZM308.868 116.609C310.159 116.609 311.451 116.187 312.742 115.342C314.033 114.497 315.186 113.348 316.201 111.893C316.801 111.001 317.331 109.993 317.792 108.866C318.3 107.693 318.761 106.52 319.176 105.347C316.824 103.189 314.218 102.109 311.358 102.109C308.868 102.109 306.885 102.884 305.409 104.432C303.933 105.934 303.195 107.811 303.195 110.063C303.195 111.987 303.748 113.559 304.855 114.779C305.962 115.999 307.3 116.609 308.868 116.609Z" fill="#769382"/>
<path d="M264.858 123.999C263.198 123.999 262.46 123.436 262.644 122.31C263.152 120.292 263.567 118.251 263.89 116.187C264.259 114.075 264.443 112.057 264.443 110.133C264.443 107.646 264.282 105.84 263.959 104.714C263.682 103.541 263.29 102.743 262.783 102.321C262.275 101.851 261.653 101.499 260.915 101.265C260.592 101.124 260.292 100.936 260.016 100.702C259.785 100.467 259.67 100.139 259.67 99.7164C259.67 99.0595 259.923 98.3322 260.431 97.5345C260.938 96.7368 261.653 96.0564 262.575 95.4933C263.544 94.8833 264.628 94.5783 265.827 94.5783C267.395 94.5783 268.479 95.1414 269.078 96.2675C269.678 97.3468 269.978 98.7779 269.978 100.561C269.978 101.734 269.863 103.048 269.632 104.503C269.401 105.957 269.171 107.271 268.94 108.444L269.148 108.515C270.07 106.028 271.177 103.728 272.468 101.617C273.806 99.4583 275.351 97.7221 277.104 96.4083C278.856 95.0944 280.886 94.4375 283.192 94.4375C285.636 94.4375 287.504 95.1883 288.796 96.6898C290.087 98.1914 290.733 100.068 290.733 102.321C290.733 103.259 290.617 104.151 290.387 104.995C290.202 105.84 289.995 106.661 289.764 107.459C289.533 108.21 289.326 108.984 289.141 109.781C289.003 110.579 288.934 111.377 288.934 112.175C288.934 114.849 290.179 116.656 292.67 117.594C293.315 117.876 293.638 118.298 293.638 118.861C293.638 119.283 293.5 119.894 293.223 120.691C292.946 121.489 292.439 122.24 291.701 122.944C290.963 123.6 289.879 123.929 288.45 123.929C286.605 123.929 285.175 123.272 284.16 121.958C283.146 120.597 282.638 118.885 282.638 116.82C282.638 115.647 282.754 114.474 282.984 113.301C283.261 112.081 283.538 110.955 283.814 109.922C283.999 109.125 284.16 108.35 284.299 107.6C284.483 106.802 284.575 106.098 284.575 105.488C284.575 103.33 283.468 102.25 281.255 102.25C279.364 102.25 277.703 102.978 276.273 104.432C274.844 105.84 273.621 107.623 272.607 109.781C271.592 111.94 270.762 114.122 270.116 116.327V118.017C270.116 119.753 269.632 121.184 268.663 122.31C267.741 123.436 266.473 123.999 264.858 123.999Z" fill="#769382"/>
<path d="M249.634 88.2436C248.343 88.1966 247.305 87.7978 246.521 87.047C245.737 86.2962 245.345 85.2405 245.345 83.8797C245.391 82.4251 245.875 81.252 246.798 80.3604C247.72 79.4219 248.896 78.9762 250.326 79.0231C251.664 79.07 252.701 79.4689 253.439 80.2197C254.223 80.9704 254.592 82.0262 254.546 83.387C254.5 84.7947 254.039 85.9678 253.162 86.9062C252.286 87.7978 251.11 88.2436 249.634 88.2436ZM249.703 123.929C248.32 123.929 247.236 123.554 246.452 122.803C245.668 122.005 245.276 120.668 245.276 118.791C245.276 117.712 245.368 116.656 245.552 115.623C245.783 114.591 246.037 113.582 246.313 112.597C246.636 111.565 246.89 110.509 247.074 109.43C247.305 108.35 247.42 107.201 247.42 105.981C247.42 105.136 247.305 104.338 247.074 103.588C246.844 102.79 246.336 102.203 245.552 101.828C244.953 101.499 244.422 101.171 243.961 100.843C243.546 100.467 243.339 99.9979 243.339 99.4348C243.339 98.7779 243.638 98.074 244.238 97.3233C244.837 96.5725 245.622 95.939 246.59 95.4229C247.605 94.8598 248.643 94.5782 249.703 94.5782C250.856 94.5782 251.687 94.8832 252.194 95.4933C252.747 96.1033 253.116 96.8775 253.301 97.816C253.485 98.7544 253.578 99.7164 253.578 100.702C253.578 102.203 253.462 103.681 253.232 105.136C253.001 106.544 252.77 107.858 252.54 109.078C252.355 109.969 252.217 110.79 252.125 111.541C252.033 112.292 251.986 112.996 251.986 113.653C251.986 114.826 252.263 115.717 252.817 116.327C253.37 116.89 254.154 117.43 255.169 117.946C255.584 118.181 255.791 118.533 255.791 119.002C255.791 119.377 255.607 119.964 255.238 120.762C254.869 121.559 254.223 122.287 253.301 122.944C252.425 123.6 251.225 123.929 249.703 123.929Z" fill="#769382"/>
<path d="M188.014 123.929C187.137 123.929 186.538 123.671 186.215 123.155C185.892 122.639 185.731 122.076 185.731 121.466C185.731 118.556 186.007 115.225 186.561 111.471C187.16 107.717 187.875 103.987 188.706 100.28C189.443 97.1357 190.251 94.203 191.127 91.4815C192.049 88.7599 192.856 86.531 193.548 84.7949C194.563 82.3548 195.716 80.5014 197.007 79.2344C198.345 77.9206 199.89 77.2636 201.643 77.2636C202.934 77.2636 204.087 77.7094 205.102 78.601C206.117 79.4456 206.716 80.9941 206.901 83.2464C207.177 85.9679 207.5 88.713 207.869 91.4815C208.238 94.2499 208.653 96.7838 209.114 99.0831C209.576 101.335 210.06 103.072 210.567 104.292C210.982 105.371 211.582 105.91 212.366 105.91C213.242 105.91 214.003 105.347 214.649 104.221C215.249 103.189 215.894 101.781 216.586 99.9981C217.278 98.215 217.947 96.338 218.592 94.3673C219.284 92.3495 219.884 90.5195 220.391 88.8772C220.991 87.0941 221.66 85.311 222.398 83.5279C223.182 81.6979 224.173 80.1964 225.372 79.0233C226.572 77.8033 228.071 77.1933 229.869 77.1933C231.53 77.1933 232.706 77.7798 233.398 78.9529C234.136 80.0791 234.504 81.8856 234.504 84.3725C234.504 86.2964 234.435 88.3141 234.297 90.4257C234.251 91.6457 234.182 92.9126 234.089 94.2265C234.043 95.4934 234.02 96.8073 234.02 98.1681C234.02 100.28 234.112 102.508 234.297 104.855C234.528 107.201 234.943 109.406 235.542 111.471C236.188 113.536 237.133 115.272 238.379 116.679C238.748 117.008 239.071 117.383 239.347 117.806C239.67 118.228 239.832 118.697 239.832 119.213C239.832 120.386 239.209 121.466 237.964 122.451C236.764 123.389 235.381 123.859 233.813 123.859C232.383 123.859 231.322 123.389 230.63 122.451C229.938 121.512 229.385 120.246 228.97 118.65C228.509 116.679 228.186 114.568 228.001 112.315C227.817 110.063 227.725 107.881 227.725 105.77C227.725 102.391 227.84 99.2942 228.07 96.4788C228.347 93.6165 228.486 91.5049 228.486 90.1441C228.486 89.3934 228.416 88.8537 228.278 88.5253C228.14 88.1499 227.794 87.9622 227.24 87.9622C226.595 87.9622 226.041 88.2672 225.58 88.8772C225.165 89.4403 224.819 90.238 224.542 91.2703C223.943 93.2411 223.274 95.3526 222.536 97.605C221.798 99.8573 221.014 102.063 220.184 104.221C219.4 106.38 218.546 108.304 217.624 109.993C216.563 111.964 215.41 113.301 214.165 114.005C212.966 114.662 211.743 114.99 210.498 114.99C208.561 114.99 207.085 114.38 206.07 113.16C205.102 111.893 204.387 110.509 203.926 109.007C203.326 106.99 202.773 104.362 202.265 101.124C201.758 97.8396 201.389 94.1561 201.158 90.0738C201.066 88.3376 200.513 87.4695 199.498 87.4695C198.391 87.4695 197.515 88.3141 196.869 90.0034C196.316 91.6926 195.785 93.6869 195.278 95.9861C194.771 98.2384 194.355 100.608 194.033 103.095C193.756 105.535 193.617 107.952 193.617 110.345C193.617 112.362 193.687 114.122 193.825 115.624C194.01 117.125 194.102 118.533 194.102 119.847C194.102 120.785 193.733 121.559 192.995 122.169C192.303 122.779 191.473 123.225 190.504 123.507C189.536 123.788 188.706 123.929 188.014 123.929Z" fill="#769382"/>
<path d="M174.059 104.925C172.768 104.925 171.707 104.502 170.877 103.658C170.093 102.813 169.701 101.734 169.701 100.42C169.701 99.0592 170.139 97.9331 171.015 97.0415C171.938 96.15 173.068 95.7042 174.405 95.7042C175.697 95.7042 176.734 96.1031 177.518 96.9008C178.302 97.6985 178.695 98.7542 178.695 100.068C178.695 101.476 178.256 102.649 177.38 103.587C176.55 104.479 175.443 104.925 174.059 104.925ZM172.883 123.858C171.592 123.858 170.531 123.436 169.701 122.591C168.917 121.747 168.525 120.668 168.525 119.354C168.525 117.993 168.963 116.867 169.839 115.975C170.715 115.084 171.845 114.638 173.229 114.638C174.52 114.638 175.558 115.037 176.342 115.834C177.126 116.632 177.518 117.688 177.518 119.002C177.518 120.409 177.08 121.583 176.204 122.521C175.328 123.413 174.221 123.858 172.883 123.858Z" fill="#769382"/>
<path d="M147.938 124.14C144.433 124.14 141.689 123.131 139.706 121.113C137.768 119.049 136.8 116.186 136.8 112.526C136.8 109.195 137.515 106.168 138.945 103.447C140.374 100.725 142.288 98.5667 144.687 96.9713C147.131 95.3289 149.806 94.5078 152.712 94.5078C155.479 94.5078 157.693 95.2116 159.354 96.6193C161.014 97.9801 161.844 99.8101 161.844 102.109C161.844 103.939 161.291 105.629 160.184 107.177C159.077 108.726 157.601 109.969 155.756 110.908C153.911 111.799 151.859 112.245 149.599 112.245C146.831 112.245 144.571 111.611 142.819 110.344C142.865 112.503 143.58 114.239 144.964 115.553C146.393 116.867 148.215 117.524 150.429 117.524C151.766 117.524 153.127 117.289 154.511 116.82C155.94 116.304 157.163 115.623 158.177 114.779C158.823 114.216 159.423 113.934 159.976 113.934C160.437 113.934 160.806 114.098 161.083 114.427C161.406 114.708 161.567 115.084 161.567 115.553C161.567 116.585 160.691 117.946 158.938 119.635C155.848 122.638 152.182 124.14 147.938 124.14ZM148.976 107.599C150.636 107.599 152.02 107.248 153.127 106.544C154.234 105.84 154.787 104.948 154.787 103.869C154.787 102.977 154.418 102.297 153.681 101.828C152.943 101.312 151.928 101.054 150.636 101.054C148.93 101.054 147.431 101.523 146.14 102.461C144.894 103.353 143.995 104.62 143.441 106.262C144.087 106.684 144.917 107.013 145.932 107.248C146.947 107.482 147.961 107.599 148.976 107.599Z" fill="#769382"/>
<path d="M104.294 123.929C103.741 123.929 103.164 123.835 102.565 123.647C102.011 123.46 101.55 123.014 101.181 122.31C100.812 121.606 100.627 120.527 100.627 119.072C100.627 118.134 100.697 116.937 100.835 115.483C101.019 113.981 101.204 112.527 101.388 111.119C101.757 108.773 102.08 106.192 102.357 103.377C102.68 100.561 102.841 97.7692 102.841 95.0007C102.841 94.0153 102.818 92.983 102.772 91.9037C102.726 90.8245 102.634 89.7922 102.495 88.8068C102.219 88.9475 101.896 89.0883 101.527 89.2291C101.204 89.3229 100.927 89.3699 100.697 89.3699C100.235 89.3699 99.9125 89.1352 99.7281 88.666C99.5897 88.1498 99.5205 87.5633 99.5205 86.9064C99.5205 85.4048 99.8664 84.2083 100.558 83.3167C101.296 82.3783 102.38 81.5336 103.81 80.7829C105.701 79.7036 107.707 78.9294 109.829 78.4601C111.996 77.944 114.049 77.6859 115.986 77.6859C118.846 77.6859 121.382 78.2021 123.596 79.2344C125.81 80.2667 127.54 81.7213 128.785 83.5983C130.03 85.4752 130.653 87.7275 130.653 90.3553C130.653 93.0768 130.007 95.4934 128.716 97.6049C127.47 99.7165 125.856 101.453 123.873 102.813C121.936 104.127 119.952 104.995 117.923 105.418C118.661 106.591 119.445 107.764 120.275 108.937C121.152 110.11 122.028 111.166 122.904 112.104C125.533 114.873 128.208 116.257 130.929 116.257C131.667 116.257 132.313 116.21 132.867 116.116C133.143 116.069 133.374 116.187 133.558 116.468C133.789 116.703 133.904 117.195 133.904 117.946C133.904 118.838 133.72 119.753 133.351 120.691C132.982 121.583 132.359 122.334 131.483 122.944C130.607 123.554 129.407 123.859 127.885 123.859C126.087 123.859 124.357 123.249 122.697 122.029C121.082 120.809 119.584 119.26 118.2 117.383C116.816 115.459 115.571 113.442 114.464 111.33C113.403 109.218 112.504 107.271 111.766 105.488C111.581 104.972 111.42 104.479 111.282 104.01C111.143 103.494 111.074 103.001 111.074 102.532C111.074 101.734 111.328 101.077 111.835 100.561C112.204 100.186 112.711 99.9276 113.357 99.7869C114.049 99.6461 115.041 99.5757 116.332 99.5757C118.776 99.5757 120.76 98.8953 122.282 97.5345C123.804 96.1738 124.565 94.4141 124.565 92.2556C124.565 89.9095 123.688 88.1968 121.936 87.1175C120.229 86.0383 118.131 85.4987 115.64 85.4987C113.611 85.4987 111.489 85.8271 109.275 86.4841C109.137 89.5341 108.814 93.0299 108.307 96.9715C108.03 99.3176 107.776 101.64 107.546 103.94C107.361 106.239 107.269 108.327 107.269 110.204C107.269 111.846 107.407 113.301 107.684 114.568C108.007 115.788 108.63 116.844 109.552 117.735C110.198 118.392 110.521 119.096 110.521 119.847C110.521 120.879 109.944 121.817 108.791 122.662C107.638 123.507 106.139 123.929 104.294 123.929Z" fill="#769382"/>
</g>
<defs>
<clipPath id="clip0_546_14987">
<rect width="356" height="200" fill="white"/>
</clipPath>
</defs>
</svg>
