<svg width="356" height="200" viewBox="0 0 356 200" fill="none" xmlns="http://www.w3.org/2000/svg">
<path d="M0 0H356V200H0V0Z" fill="#A9C4DA"/>
<path d="M73.0726 91.6492C70.5366 91.6492 68.0962 91.2742 65.7516 90.524C63.4548 89.8207 61.5887 88.6252 60.1532 86.9373C58.7177 85.2494 58 82.9755 58 80.1155C58 77.068 58.5981 74.0908 59.7944 71.184C60.9906 68.2771 62.5935 65.5812 64.6032 63.0963C66.6129 60.5645 68.8618 58.3844 71.35 56.5559C73.5511 54.9149 76.0871 53.5787 78.9581 52.5472C81.8769 51.5157 84.7718 51 87.6427 51C88.839 51 89.9634 51.0938 91.0161 51.2813C92.0688 51.422 93.1454 51.7502 94.246 52.2659C95.203 52.6879 95.9685 53.227 96.5427 53.8834C97.1169 54.4929 97.404 55.1962 97.404 55.9932C97.404 56.087 97.404 56.2042 97.404 56.3449C97.404 56.4855 97.3801 56.6027 97.3323 56.6965C97.1409 57.4467 96.6863 58.314 95.9685 59.2986C95.2987 60.2363 94.7723 61.2209 94.3895 62.2524C94.3417 62.4399 94.0785 62.604 93.6 62.7447C93.1215 62.8384 92.9301 62.7916 93.0258 62.604C93.4086 61.9945 93.6957 61.2444 93.8871 60.3535C94.1263 59.4627 94.246 58.5719 94.246 57.6811C94.246 57.0247 94.1742 56.4152 94.0306 55.8526C93.9349 55.2431 93.7435 54.7274 93.4564 54.3054C92.9779 53.4615 92.2363 52.8754 91.2315 52.5472C90.2266 52.219 89.15 52.0549 88.0016 52.0549C86.9011 52.0549 85.8005 52.1721 84.7 52.4065C83.5995 52.641 82.6425 52.8988 81.829 53.1801C79.0538 54.1647 76.3981 55.7119 73.8621 57.8218C71.6132 59.744 69.6035 61.9711 67.8331 64.5029C66.1105 67.0346 64.7468 69.6368 63.7419 72.3092C62.7371 74.9816 62.2347 77.5369 62.2347 79.9749C62.2347 82.4598 62.7849 84.429 63.8855 85.8824C64.986 87.3358 66.4215 88.3673 68.1919 88.9768C69.9624 89.5863 71.8763 89.8911 73.9339 89.8911C75.7521 89.8911 77.5465 89.7035 79.3169 89.3284C81.1352 88.9534 82.786 88.4845 84.2693 87.9219C86.8054 86.9842 89.0782 85.8355 91.0879 84.4758C93.1454 83.1162 95.0594 81.358 96.8298 79.2013C97.0691 78.9669 97.2366 78.8496 97.3323 78.8496C97.4758 78.8496 97.5476 78.9434 97.5476 79.131C97.5476 79.506 97.3562 79.9515 96.9734 80.4672C95.3465 82.6239 93.5043 84.429 91.4468 85.8824C89.3892 87.3358 87.1882 88.5314 84.8435 89.4691C83.2645 90.0786 81.4223 90.5943 79.3169 91.0163C77.2594 91.4383 75.178 91.6492 73.0726 91.6492Z" fill="#0F304A"/>
<path d="M96.711 89.7504C95.9454 89.7504 95.2516 89.6097 94.6295 89.3284C94.0553 89.0002 93.7682 88.3204 93.7682 87.2889C93.7682 85.648 94.1989 84.007 95.0602 82.366C95.9214 80.6782 96.8066 79.2013 97.7158 77.9354C98.5292 76.857 99.4384 75.849 100.443 74.9113C101.496 73.9267 102.62 73.0828 103.817 72.3795C104.582 71.9107 105.611 71.4184 106.903 70.9027C108.243 70.34 109.367 70.0587 110.276 70.0587C111.042 70.0587 111.712 70.2697 112.286 70.6917C112.86 71.0668 113.147 71.77 113.147 72.8015C113.147 74.3956 112.717 76.0366 111.855 77.7244C111.042 79.3654 110.181 80.8188 109.271 82.0847C108.841 82.6473 108.41 83.1865 107.979 83.7022C107.549 84.1711 107.07 84.6634 106.544 85.1791C108.314 85.1791 109.941 84.6868 111.425 83.7022C112.908 82.6708 114.2 81.4283 115.3 79.9749L115.444 79.8342C115.588 79.8342 115.659 79.9749 115.659 80.2562C115.659 80.5844 115.564 80.8891 115.372 81.1705C114.415 82.4832 113.219 83.6554 111.784 84.6868C110.348 85.6714 108.721 86.1637 106.903 86.1637C106.711 86.1637 106.52 86.1637 106.329 86.1637C106.137 86.1637 105.946 86.1403 105.755 86.0934C103.075 88.5314 100.06 89.7504 96.711 89.7504ZM98.5771 88.5548C99.247 88.5548 99.9647 88.3204 100.73 87.8516C101.544 87.3827 102.166 86.9373 102.596 86.5153C103.41 85.7183 104.152 84.8744 104.821 83.9836C105.491 83.0459 106.113 82.1082 106.688 81.1705C107.357 80.0452 108.027 78.709 108.697 77.1618C109.367 75.6146 109.702 74.1612 109.702 72.8015C109.702 71.7231 109.319 71.184 108.554 71.184C107.932 71.184 107.166 71.4418 106.257 71.9576C105.396 72.4733 104.75 72.9421 104.319 73.3641C102.692 75.0051 101.328 76.7867 100.228 78.709C99.6058 79.7874 98.936 81.0532 98.2182 82.5067C97.5005 83.9601 97.1416 85.2963 97.1416 86.5153C97.1416 86.7029 97.1416 86.8904 97.1416 87.078C97.1895 87.2186 97.2373 87.3827 97.2852 87.5703C97.4766 88.2266 97.9072 88.5548 98.5771 88.5548Z" fill="#0F304A"/>
<path d="M114.988 90.6647C114.797 90.6647 114.797 90.4537 114.988 90.0317C115.227 89.6097 115.443 89.1409 115.634 88.6252C115.873 88.1094 116.113 87.5468 116.352 86.9373C116.83 85.8121 117.357 84.5462 117.931 83.1396C118.505 81.7331 119.055 80.3734 119.582 79.0606C120.108 77.701 120.563 76.5523 120.945 75.6146C121.376 74.63 121.663 73.9971 121.807 73.7158C121.137 74.419 120.323 75.3098 119.366 76.3882C118.457 77.4197 117.596 78.4277 116.783 79.4123C115.969 80.3969 115.347 81.1705 114.916 81.7331C114.773 81.9206 114.653 82.0144 114.557 82.0144C114.462 82.0144 114.414 81.8972 114.414 81.6628C114.414 81.2877 114.534 80.936 114.773 80.6078C115.682 79.4826 116.687 78.2167 117.787 76.8102C118.936 75.4036 119.964 74.1143 120.874 72.9421C121.783 71.7231 122.357 70.9261 122.596 70.551C123.123 70.4572 123.888 70.3166 124.893 70.1291C125.946 69.9415 126.663 69.6836 127.046 69.3555C127.19 69.2148 127.333 69.1445 127.477 69.1445C127.573 69.1445 127.62 69.2382 127.62 69.4258C127.668 69.5664 127.62 69.7305 127.477 69.9181C127.19 70.2463 126.687 71.0199 125.97 72.2389C125.3 73.411 124.558 74.7238 123.745 76.1772C122.979 77.6306 122.261 78.9434 121.591 80.1155C122.357 79.2247 123.099 78.3808 123.816 77.5838C124.582 76.7867 125.108 76.2241 125.395 75.8959C125.97 75.3333 126.759 74.63 127.764 73.7861C128.769 72.9422 129.821 72.1685 130.922 71.4653C132.023 70.762 132.98 70.3635 133.793 70.2697C133.984 70.2228 134.152 70.1994 134.295 70.1994C134.439 70.1994 134.582 70.1994 134.726 70.1994C135.635 70.1994 136.09 70.5276 136.09 71.184C136.09 71.4653 136.018 71.7935 135.874 72.1685C135.731 72.5436 135.539 72.9187 135.3 73.2938C135.013 73.8564 134.535 74.7472 133.865 75.9662C133.195 77.1383 132.597 78.2167 132.07 79.2013L135.444 75.8959C136.018 75.3333 136.807 74.63 137.812 73.7861C138.817 72.9422 139.87 72.1685 140.97 71.4653C142.071 70.762 143.028 70.3635 143.841 70.2697C144.033 70.2228 144.2 70.1994 144.344 70.1994C144.535 70.1994 144.679 70.1994 144.774 70.1994C145.827 70.1994 146.353 70.5745 146.353 71.3246C146.353 71.8872 146.042 72.6374 145.42 73.5751C145.085 74.0908 144.559 74.9582 143.841 76.1772C143.124 77.3962 142.382 78.7324 141.616 80.1859C140.899 81.5924 140.277 82.9052 139.75 84.1242C139.224 85.3432 138.961 86.234 138.961 86.7967C138.961 87.453 139.296 87.7812 139.966 87.7812C140.588 87.7812 141.377 87.4296 142.334 86.7263C143.339 85.9762 144.344 85.0853 145.349 84.0539C146.401 83.0224 147.31 82.0378 148.076 81.1001C148.411 80.725 148.722 80.35 149.009 79.9749C149.344 79.5529 149.535 79.3185 149.583 79.2716C149.679 79.3654 149.727 79.5295 149.727 79.7639C149.727 80.0921 149.607 80.4203 149.368 80.7485C149.177 81.0298 148.985 81.2877 148.794 81.5221C147.885 82.6942 146.832 83.9132 145.636 85.1791C144.487 86.445 143.219 87.5234 141.832 88.4142C140.444 89.2581 138.961 89.7504 137.382 89.8911C136.903 89.9379 136.425 89.8442 135.946 89.6097C135.468 89.3753 135.228 89.0002 135.228 88.4845C135.228 87.8281 135.396 87.0545 135.731 86.1637C136.114 85.2729 136.52 84.3821 136.951 83.4913C137.43 82.6005 137.788 81.8737 138.028 81.3111C138.889 79.6701 139.678 78.1229 140.396 76.6695C141.114 75.2161 141.616 74.1846 141.903 73.5751C142.047 73.2938 142.119 73.0594 142.119 72.8718C142.119 72.5436 141.856 72.5202 141.329 72.8015C140.803 73.0828 140.157 73.5048 139.391 74.0674C138.674 74.63 138.004 75.1926 137.382 75.7552C136.76 76.271 136.353 76.6226 136.162 76.8102C135.348 77.6072 134.367 78.6856 133.219 80.0452C132.118 81.4049 131.089 82.8349 130.133 84.3352C129.176 85.7886 128.506 87.1483 128.123 88.4142C127.644 88.8361 127.19 89.0471 126.759 89.0471C126.424 89.0471 126.137 88.9299 125.898 88.6955C125.706 88.4611 125.611 88.1798 125.611 87.8516C125.611 86.9139 125.898 85.8121 126.472 84.5462C127.094 83.2334 127.596 82.155 127.979 81.3111C128.841 79.6701 129.63 78.1229 130.348 76.6695C131.066 75.2161 131.568 74.1846 131.855 73.5751C131.999 73.2938 132.07 73.0594 132.07 72.8718C132.07 72.5436 131.807 72.5202 131.281 72.8015C130.755 73.0828 130.109 73.5048 129.343 74.0674C128.625 74.63 127.955 75.1926 127.333 75.7552C126.711 76.271 126.305 76.6226 126.113 76.8102C124.965 77.9823 123.888 79.1779 122.883 80.3969C121.926 81.6159 121.113 82.9286 120.443 84.3352C120.06 85.1791 119.653 86.1168 119.223 87.1483C118.792 88.1798 118.433 89.0471 118.146 89.7504C117.524 89.7973 116.902 89.9614 116.28 90.2427C115.658 90.524 115.227 90.6647 114.988 90.6647Z" fill="#0F304A"/>
<path d="M163.201 62.7447C162.531 62.7447 162.052 62.5337 161.765 62.1117C161.574 61.8773 161.478 61.5726 161.478 61.1975C161.478 60.4473 161.837 59.8378 162.555 59.369C163.081 59.0877 163.56 58.947 163.99 58.947C164.708 58.947 165.21 59.158 165.498 59.5799C165.689 59.8144 165.785 60.1191 165.785 60.4942C165.785 61.2444 165.402 61.8539 164.636 62.3227C164.206 62.604 163.727 62.7447 163.201 62.7447ZM150.712 89.8207C150.234 89.8207 149.827 89.727 149.492 89.5394C149.205 89.3519 149.061 89.0002 149.061 88.4845C149.061 87.8281 149.229 87.0545 149.564 86.1637C149.946 85.2729 150.353 84.3821 150.784 83.4913C151.262 82.6005 151.621 81.8737 151.86 81.3111C152.195 80.6547 152.602 79.8108 153.081 78.7793C153.607 77.701 154.085 76.6929 154.516 75.7552C154.995 74.7707 155.33 74.0908 155.521 73.7158C154.851 74.419 154.038 75.3098 153.081 76.3882C152.171 77.4197 151.31 78.4277 150.497 79.4123C149.683 80.3969 149.061 81.1705 148.631 81.7331C148.487 81.9206 148.367 82.0144 148.272 82.0144C148.176 82.0144 148.128 81.8972 148.128 81.6628C148.128 81.2877 148.248 80.936 148.487 80.6078C149.396 79.4826 150.401 78.2167 151.502 76.8102C152.65 75.4036 153.679 74.1143 154.588 72.9421C155.497 71.7231 156.071 70.9261 156.31 70.551C156.837 70.4572 157.602 70.3166 158.607 70.1291C159.66 69.9415 160.378 69.6836 160.76 69.3555C160.904 69.2148 161.048 69.1445 161.191 69.1445C161.287 69.1445 161.335 69.2382 161.335 69.4258C161.383 69.5664 161.335 69.7305 161.191 69.9181C160.904 70.2463 160.402 71.0433 159.684 72.3092C158.966 73.5751 158.201 74.9816 157.387 76.5288C156.621 78.0292 155.904 79.3888 155.234 80.6078C154.564 81.8737 153.99 83.0927 153.511 84.2649C153.033 85.437 152.794 86.2809 152.794 86.7967C152.794 87.453 153.128 87.7812 153.798 87.7812C154.42 87.7812 155.21 87.4062 156.167 86.656C157.172 85.9058 158.177 85.015 159.181 83.9836C160.186 82.9052 161.071 81.9206 161.837 81.0298C162.076 80.7485 162.363 80.4203 162.698 80.0452C163.081 79.6233 163.32 79.3654 163.416 79.2716C163.512 79.3654 163.56 79.5295 163.56 79.7639C163.512 80.0921 163.392 80.4203 163.201 80.7485C163.009 81.0298 162.818 81.2877 162.627 81.5221C161.622 82.7411 160.521 84.007 159.325 85.3198C158.129 86.5857 156.813 87.664 155.377 88.5548C153.942 89.3988 152.387 89.8207 150.712 89.8207Z" fill="#0F304A"/>
<path d="M162.511 90.6647C162.319 90.6647 162.319 90.4537 162.511 90.0317C162.75 89.6097 162.965 89.1409 163.156 88.6252C163.396 88.1094 163.635 87.5468 163.874 86.9373C164.353 85.8121 164.879 84.5462 165.453 83.1396C166.027 81.7331 166.578 80.3734 167.104 79.0606C167.63 77.701 168.085 76.5523 168.468 75.6146C168.898 74.63 169.186 73.9971 169.329 73.7158C168.659 74.419 167.846 75.3098 166.889 76.3882C165.98 77.4197 165.118 78.4277 164.305 79.4123C163.491 80.3969 162.869 81.1705 162.439 81.7331C162.295 81.9206 162.176 82.0144 162.08 82.0144C161.984 82.0144 161.936 81.8972 161.936 81.6628C161.936 81.2877 162.056 80.936 162.295 80.6078C163.204 79.4826 164.209 78.2167 165.31 76.8102C166.458 75.4036 167.487 74.1143 168.396 72.9421C169.305 71.7231 169.879 70.9261 170.119 70.551C170.645 70.4572 171.411 70.3166 172.415 70.1291C173.468 69.9415 174.186 69.6836 174.569 69.3555C174.712 69.2148 174.856 69.1445 174.999 69.1445C175.095 69.1445 175.143 69.2382 175.143 69.4258C175.191 69.5664 175.143 69.7305 174.999 69.9181C174.712 70.2463 174.21 71.0199 173.492 72.2389C172.822 73.411 172.08 74.7238 171.267 76.1772C170.501 77.6306 169.784 78.9434 169.114 80.1155C169.688 79.3654 170.31 78.6387 170.98 77.9354C171.65 77.2321 172.296 76.5523 172.918 75.8959C173.492 75.3333 174.281 74.63 175.286 73.7861C176.291 72.9422 177.344 72.1685 178.444 71.4653C179.545 70.762 180.502 70.3635 181.315 70.2697C181.507 70.2228 181.674 70.1994 181.818 70.1994C182.009 70.1994 182.153 70.1994 182.248 70.1994C183.301 70.1994 183.827 70.5745 183.827 71.3246C183.827 71.8872 183.516 72.6374 182.894 73.5751C182.559 74.0908 182.033 74.9582 181.315 76.1772C180.645 77.3493 179.952 78.6387 179.234 80.0452C178.564 81.4049 177.966 82.6942 177.44 83.9132C176.961 85.0854 176.722 85.9527 176.722 86.5153C176.722 87.1717 177.057 87.4999 177.727 87.4999C178.54 87.4999 179.425 87.1014 180.382 86.3044C181.387 85.5073 182.464 84.4993 183.612 83.2803C184.761 82.0144 185.909 80.6782 187.057 79.2716C187.153 79.3654 187.201 79.5295 187.201 79.7639C187.201 80.0921 187.081 80.4203 186.842 80.7485C186.651 81.0298 186.459 81.2877 186.268 81.5221C185.789 82.1316 185.143 82.9052 184.33 83.8429C183.564 84.7337 182.775 85.6245 181.961 86.5153C181.148 87.3593 180.406 88.0391 179.736 88.5548C179.258 88.883 178.636 89.2347 177.87 89.6097C177.105 89.9848 176.339 90.1724 175.573 90.1724C174.712 90.1724 174.114 89.9614 173.779 89.5394C173.444 89.0706 173.277 88.508 173.277 87.8516C173.277 87.1014 173.42 86.3044 173.707 85.4604C173.994 84.6165 174.305 83.8195 174.64 83.0693C175.023 82.2723 175.31 81.6862 175.502 81.3111C176.363 79.6701 177.152 78.1229 177.87 76.6695C178.588 75.2161 179.09 74.1846 179.377 73.5751C179.521 73.2938 179.593 73.0594 179.593 72.8718C179.593 72.5436 179.33 72.5202 178.803 72.8015C178.277 73.0828 177.631 73.5048 176.865 74.0674C176.148 74.63 175.478 75.1926 174.856 75.7552C174.234 76.271 173.827 76.6226 173.636 76.8102C171.865 78.6387 170.31 80.6782 168.97 82.9286C167.678 85.1322 166.578 87.4061 165.669 89.7504C165.047 89.7973 164.424 89.9614 163.802 90.2427C163.18 90.524 162.75 90.6647 162.511 90.6647Z" fill="#0F304A"/>
<path d="M172.923 114.224C171.105 114.224 169.359 113.802 167.684 112.958C165.961 112.161 164.693 110.919 163.88 109.231C163.545 108.622 163.33 107.965 163.234 107.262C163.138 106.606 163.09 105.949 163.09 105.293V104.589C163.09 104.214 163.138 103.863 163.234 103.535C163.33 103.206 163.593 103.042 164.023 103.042C164.119 103.042 164.167 103.089 164.167 103.183C164.167 103.464 164.143 103.746 164.095 104.027C164.047 104.308 164.023 104.613 164.023 104.941C164.023 107.098 164.741 108.739 166.177 109.864C167.564 110.989 169.311 111.552 171.416 111.552C172.277 111.552 173.163 111.458 174.072 111.271C174.981 111.083 175.818 110.825 176.584 110.497C179.646 109.231 182.302 107.403 184.551 105.011C186.848 102.62 188.833 99.9244 190.508 96.9238C192.231 93.9232 193.738 90.8522 195.03 87.7109C196.37 84.5227 197.614 81.5221 198.762 78.709C197.757 80.3031 196.657 81.7331 195.46 82.999C194.264 84.218 192.924 85.437 191.441 86.656C190.532 87.4062 189.527 88.1094 188.427 88.7658C187.374 89.4222 186.226 89.7504 184.981 89.7504C184.503 89.7504 184.168 89.6097 183.977 89.3284C183.785 89.0002 183.689 88.6252 183.689 88.2032V87.7109C183.929 85.8824 184.527 83.9835 185.484 82.0144C186.489 80.0452 187.685 78.1933 189.073 76.4585C190.46 74.7238 191.872 73.3172 193.307 72.2389C194.934 71.0199 196.728 70.4104 198.69 70.4104H206.944C207.184 70.4104 207.303 70.5041 207.303 70.6917C207.303 71.0668 207.088 71.2543 206.657 71.2543C206.131 71.2543 205.628 71.4653 205.15 71.8872C204.671 72.3092 204.313 72.7077 204.073 73.0828C203.595 73.833 202.973 74.9816 202.207 76.5288C201.442 78.076 200.604 79.8577 199.695 81.8737C198.786 83.8429 197.877 85.859 196.968 87.9219C196.059 89.9379 195.221 91.8368 194.456 93.6184C193.307 96.2908 191.991 98.893 190.508 101.425C189.073 104.003 187.35 106.301 185.34 108.317C183.378 110.38 181.034 111.997 178.306 113.169C176.68 113.873 174.885 114.224 172.923 114.224ZM187.924 87.3593C188.498 87.3593 189.288 86.9607 190.293 86.1637C191.298 85.3198 192.398 84.2883 193.594 83.0693C194.791 81.8034 195.915 80.4906 196.968 79.131C198.02 77.7244 198.882 76.4585 199.552 75.3333C200.269 74.1612 200.628 73.2703 200.628 72.6608C200.628 72.1451 200.461 71.7935 200.126 71.6059C199.839 71.4184 199.456 71.3246 198.977 71.3246C198.212 71.3246 197.398 71.6059 196.537 72.1685C195.676 72.6843 194.982 73.2 194.456 73.7158C193.881 74.2315 193.188 75.052 192.374 76.1772C191.609 77.2556 190.819 78.4511 190.006 79.7639C189.24 81.0767 188.594 82.3426 188.068 83.5616C187.541 84.7806 187.278 85.7652 187.278 86.5153C187.278 87.078 187.494 87.3593 187.924 87.3593Z" fill="#0F304A"/>
<path d="M215.197 148.572C213.523 148.572 211.752 148.315 209.886 147.799C208.068 147.33 206.441 146.533 205.005 145.408C203.618 144.282 202.685 142.782 202.206 140.907C202.158 140.672 202.11 140.414 202.063 140.133C202.063 139.852 202.063 139.57 202.063 139.289C202.063 137.836 202.398 136.429 203.067 135.07C203.737 133.71 204.551 132.678 205.508 131.975H205.579C205.675 131.975 205.795 132.092 205.938 132.327C206.13 132.514 206.13 132.655 205.938 132.749C205.46 133.218 205.101 133.757 204.862 134.366C204.67 134.929 204.575 135.538 204.575 136.195C204.575 137.086 204.718 138 205.005 138.938C205.34 139.828 205.747 140.602 206.225 141.258C207.422 142.899 209.072 144.212 211.178 145.197C213.331 146.134 215.436 146.603 217.494 146.603C220.317 146.603 222.494 145.783 224.025 144.142C225.604 142.501 226.394 140.485 226.394 138.094C226.394 136.64 226.107 135.187 225.533 133.733C224.767 131.717 223.738 129.748 222.446 127.826C221.202 125.857 220.054 123.934 219.001 122.059C218.092 120.371 217.638 118.66 217.638 116.925C217.638 115.097 218.212 113.338 219.36 111.65C220.509 110.15 222.016 108.955 223.882 108.064C225.796 107.126 227.734 106.657 229.696 106.657C231.035 106.657 232.327 106.892 233.571 107.361C234.816 107.829 235.94 108.603 236.945 109.681C237.232 110.103 237.375 110.642 237.375 111.299C237.375 112.237 237.184 112.963 236.801 113.479C236.371 114.089 235.892 114.886 235.366 115.87C234.839 116.855 234.528 117.535 234.433 117.91C234.337 117.957 234.098 118.05 233.715 118.191C233.38 118.285 233.165 118.261 233.069 118.121C233.26 117.746 233.524 117.066 233.859 116.081C234.193 115.097 234.361 114.206 234.361 113.409C234.361 112.893 234.337 112.33 234.289 111.721C234.289 111.064 233.978 110.502 233.356 110.033C232.782 109.517 232.04 109.072 231.131 108.697C230.222 108.322 229.121 108.134 227.829 108.134C225.198 108.134 223.188 108.884 221.8 110.385C220.413 111.885 219.719 113.526 219.719 115.308C219.719 116.198 219.91 117.089 220.293 117.98C221.011 119.668 222.016 121.262 223.308 122.762C224.6 124.263 225.868 125.81 227.112 127.404C228.404 128.951 229.409 130.639 230.126 132.467C230.605 133.686 230.844 134.929 230.844 136.195C230.844 138.023 230.366 139.688 229.409 141.188C228.499 142.688 227.255 144.001 225.676 145.126C224.145 146.205 222.47 147.049 220.652 147.658C218.834 148.268 217.016 148.572 215.197 148.572Z" fill="#0F304A"/>
<path d="M235.306 146.322C234.541 146.322 233.847 146.181 233.225 145.9C232.651 145.572 232.364 144.892 232.364 143.86C232.364 142.219 232.794 140.578 233.656 138.938C234.517 137.25 235.402 135.773 236.311 134.507C237.125 133.429 238.034 132.421 239.039 131.483C240.091 130.498 241.216 129.654 242.412 128.951C243.178 128.482 244.206 127.99 245.498 127.474C246.838 126.912 247.963 126.63 248.872 126.63C249.637 126.63 250.307 126.841 250.881 127.263C251.456 127.638 251.743 128.342 251.743 129.373C251.743 130.967 251.312 132.608 250.451 134.296C249.637 135.937 248.776 137.39 247.867 138.656C247.436 139.219 247.006 139.758 246.575 140.274C246.144 140.743 245.666 141.235 245.139 141.751C246.91 141.751 248.537 141.258 250.02 140.274C251.503 139.242 252.795 138 253.896 136.546L254.039 136.406C254.183 136.406 254.255 136.546 254.255 136.828C254.255 137.156 254.159 137.461 253.968 137.742C253.011 139.055 251.814 140.227 250.379 141.258C248.943 142.243 247.317 142.735 245.498 142.735C245.307 142.735 245.115 142.735 244.924 142.735C244.733 142.735 244.541 142.712 244.35 142.665C241.67 145.103 238.656 146.322 235.306 146.322ZM237.172 145.126C237.842 145.126 238.56 144.892 239.326 144.423C240.139 143.954 240.761 143.509 241.192 143.087C242.005 142.29 242.747 141.446 243.417 140.555C244.087 139.617 244.709 138.68 245.283 137.742C245.953 136.617 246.623 135.28 247.293 133.733C247.963 132.186 248.297 130.733 248.297 129.373C248.297 128.295 247.915 127.755 247.149 127.755C246.527 127.755 245.761 128.013 244.852 128.529C243.991 129.045 243.345 129.514 242.914 129.936C241.288 131.577 239.924 133.358 238.823 135.281C238.201 136.359 237.531 137.625 236.814 139.078C236.096 140.532 235.737 141.868 235.737 143.087C235.737 143.274 235.737 143.462 235.737 143.649C235.785 143.79 235.833 143.954 235.881 144.142C236.072 144.798 236.503 145.126 237.172 145.126Z" fill="#0F304A"/>
<path d="M254.301 146.322C253.536 146.322 252.842 146.181 252.22 145.9C251.646 145.572 251.359 144.892 251.359 143.86C251.359 142.219 251.789 140.578 252.65 138.938C253.512 137.25 254.397 135.773 255.306 134.507C256.12 133.429 257.029 132.421 258.034 131.483C259.086 130.498 260.211 129.654 261.407 128.951C262.173 128.482 263.201 127.99 264.493 127.474C265.833 126.912 266.957 126.63 267.867 126.63C268.632 126.63 269.302 126.841 269.876 127.263C270.45 127.638 270.738 128.342 270.738 129.373C270.738 130.967 270.307 132.608 269.446 134.296C268.632 135.937 267.771 137.39 266.862 138.656C266.431 139.219 266 139.758 265.57 140.274C265.139 140.743 264.661 141.235 264.134 141.751C265.905 141.751 267.532 141.258 269.015 140.274C270.498 139.242 271.79 138 272.891 136.546L273.034 136.406C273.178 136.406 273.25 136.546 273.25 136.828C273.25 137.156 273.154 137.461 272.963 137.742C272.006 139.055 270.809 140.227 269.374 141.258C267.938 142.243 266.312 142.735 264.493 142.735C264.302 142.735 264.11 142.735 263.919 142.735C263.728 142.735 263.536 142.712 263.345 142.665C260.665 145.103 257.651 146.322 254.301 146.322ZM256.167 145.126C256.837 145.126 257.555 144.892 258.321 144.423C259.134 143.954 259.756 143.509 260.187 143.087C261 142.29 261.742 141.446 262.412 140.555C263.082 139.617 263.704 138.68 264.278 137.742C264.948 136.617 265.618 135.28 266.288 133.733C266.957 132.186 267.292 130.733 267.292 129.373C267.292 128.295 266.91 127.755 266.144 127.755C265.522 127.755 264.756 128.013 263.847 128.529C262.986 129.045 262.34 129.514 261.909 129.936C260.282 131.577 258.919 133.358 257.818 135.281C257.196 136.359 256.526 137.625 255.809 139.078C255.091 140.532 254.732 141.868 254.732 143.087C254.732 143.274 254.732 143.462 254.732 143.649C254.78 143.79 254.828 143.954 254.875 144.142C255.067 144.798 255.498 145.126 256.167 145.126Z" fill="#0F304A"/>
<path d="M272.578 147.236C272.387 147.236 272.387 147.025 272.578 146.603C272.818 146.181 273.033 145.712 273.224 145.197C273.464 144.681 273.703 144.118 273.942 143.509C274.421 142.384 274.947 141.118 275.521 139.711C276.095 138.305 276.646 136.945 277.172 135.632C277.698 134.272 278.153 133.124 278.536 132.186C278.966 131.201 279.253 130.569 279.397 130.287C278.727 130.991 277.914 131.881 276.957 132.96C276.048 133.991 275.186 134.999 274.373 135.984C273.559 136.968 272.937 137.742 272.507 138.305C272.363 138.492 272.243 138.586 272.148 138.586C272.052 138.586 272.004 138.469 272.004 138.234C272.004 137.859 272.124 137.508 272.363 137.179C273.272 136.054 274.277 134.788 275.378 133.382C276.526 131.975 277.555 130.686 278.464 129.514C279.373 128.295 279.947 127.498 280.187 127.123C280.713 127.029 281.478 126.888 282.483 126.701C283.536 126.513 284.254 126.255 284.637 125.927C284.78 125.786 284.924 125.716 285.067 125.716C285.163 125.716 285.211 125.81 285.211 125.997C285.259 126.138 285.211 126.302 285.067 126.49C284.78 126.818 284.278 127.591 283.56 128.81C282.89 129.983 282.148 131.295 281.335 132.749C280.569 134.202 279.852 135.515 279.182 136.687C279.756 135.937 280.378 135.21 281.048 134.507C281.718 133.804 282.364 133.124 282.986 132.467C283.56 131.905 284.349 131.202 285.354 130.358C286.359 129.514 287.412 128.74 288.512 128.037C289.613 127.334 290.57 126.935 291.383 126.841C291.575 126.794 291.742 126.771 291.886 126.771C292.077 126.771 292.221 126.771 292.316 126.771C293.369 126.771 293.895 127.146 293.895 127.896C293.895 128.459 293.584 129.209 292.962 130.147C292.627 130.662 292.101 131.53 291.383 132.749C290.713 133.921 290.02 135.21 289.302 136.617C288.632 137.976 288.034 139.266 287.507 140.485C287.029 141.657 286.79 142.524 286.79 143.087C286.79 143.743 287.125 144.071 287.795 144.071C288.608 144.071 289.493 143.673 290.45 142.876C291.455 142.079 292.532 141.071 293.68 139.852C294.828 138.586 295.977 137.25 297.125 135.843C297.221 135.937 297.269 136.101 297.269 136.335C297.269 136.664 297.149 136.992 296.91 137.32C296.719 137.601 296.527 137.859 296.336 138.094C295.857 138.703 295.211 139.477 294.398 140.414C293.632 141.305 292.843 142.196 292.029 143.087C291.216 143.931 290.474 144.611 289.804 145.126C289.326 145.455 288.704 145.806 287.938 146.181C287.173 146.556 286.407 146.744 285.641 146.744C284.78 146.744 284.182 146.533 283.847 146.111C283.512 145.642 283.345 145.079 283.345 144.423C283.345 143.673 283.488 142.876 283.775 142.032C284.062 141.188 284.373 140.391 284.708 139.641C285.091 138.844 285.378 138.258 285.57 137.883C286.431 136.242 287.22 134.694 287.938 133.241C288.656 131.788 289.158 130.756 289.445 130.147C289.589 129.865 289.661 129.631 289.661 129.443C289.661 129.115 289.398 129.092 288.871 129.373C288.345 129.654 287.699 130.076 286.933 130.639C286.216 131.202 285.546 131.764 284.924 132.327C284.302 132.842 283.895 133.194 283.703 133.382C281.933 135.21 280.378 137.25 279.038 139.5C277.746 141.704 276.646 143.978 275.737 146.322C275.114 146.369 274.492 146.533 273.87 146.814C273.248 147.095 272.818 147.236 272.578 147.236Z" fill="#0F304A"/>
</svg>
